<svg width="40" height="41" viewBox="0 0 40 41" fill="none" xmlns="http://www.w3.org/2000/svg">
<path opacity="0.2" d="M7.5 17.2764H32.5V26.9013C32.5 26.9013 30.7143 32.1513 20 32.1513C9.28571 32.1513 7.5 26.9013 7.5 26.9013V17.2764Z" fill="#2A3D2B"/>
<path d="M7.5 16.6514H32.5V26.2763C32.5 26.2763 30.7143 31.5263 20 31.5263C9.28571 31.5263 7.5 26.2763 7.5 26.2763V16.6514Z" fill="#324934"/>
<path opacity="0.2" d="M19.5884 7.78797C18.7601 7.83441 17.9879 8.01997 17.3979 8.31433L3.57635 15.2262C2.88712 15.5713 2.5 16.0391 2.5 16.5269C2.5 17.0146 2.88712 17.4824 3.57635 17.8276L17.3979 24.7378C18.0883 25.0826 19.0242 25.2763 20 25.2763C20.9758 25.2763 21.9117 25.0826 22.6021 24.7378L36.4236 17.8276C37.1129 17.4824 37.5 17.0146 37.5 16.5269C37.5 16.0391 37.1129 15.5713 36.4236 15.2262L22.6021 8.31433C22.211 8.11913 21.737 7.97046 21.2152 7.87934C20.6935 7.78823 20.1375 7.757 19.5884 7.78797Z" fill="#2A3D2B"/>
<path d="M19.5884 7.16297C18.7601 7.20941 17.9879 7.39497 17.3979 7.68933L3.57635 14.6012C2.88712 14.9463 2.5 15.4141 2.5 15.9019C2.5 16.3896 2.88712 16.8574 3.57635 17.2026L17.3979 24.1128C18.0883 24.4576 19.0242 24.6513 20 24.6513C20.9758 24.6513 21.9117 24.4576 22.6021 24.1128L36.4236 17.2026C37.1129 16.8574 37.5 16.3896 37.5 15.9019C37.5 15.4141 37.1129 14.9463 36.4236 14.6012L22.6021 7.68933C22.211 7.49413 21.737 7.34546 21.2152 7.25434C20.6935 7.16323 20.1375 7.132 19.5884 7.16297Z" fill="#546756"/>
<path opacity="0.2" d="M20.1695 14.6623L7.17637 16.6667C5.94642 16.7693 5.11208 17.5073 4.75083 18.1804C4.38487 18.8623 4.37486 19.5256 4.37486 19.5256C4.37476 19.5333 4.37476 19.5411 4.37486 19.5488V25.3227C4.26042 25.3645 4.15836 25.4362 4.07857 25.531C3.99879 25.6257 3.944 25.7403 3.91954 25.8635L2.51329 33.1547C2.49299 33.2605 2.49556 33.3696 2.52081 33.4742C2.54607 33.5788 2.59338 33.6763 2.65934 33.7596C2.72531 33.843 2.80828 33.9101 2.90228 33.9562C2.99629 34.0024 3.09899 34.0263 3.20298 34.0263H7.42295C7.52695 34.0263 7.62965 34.0024 7.72365 33.9562C7.81766 33.9101 7.90063 33.843 7.96659 33.7596C8.03256 33.6763 8.07987 33.5788 8.10512 33.4742C8.13038 33.3696 8.13295 33.2605 8.11265 33.1547L6.70518 25.8635C6.68071 25.7403 6.62593 25.6257 6.54614 25.531C6.46636 25.4362 6.36429 25.3645 6.24986 25.3227V19.5732C6.24986 19.5732 6.26264 19.3271 6.40245 19.0666C6.54225 18.8061 6.68056 18.5797 7.35337 18.5332C7.37952 18.5314 7.40559 18.5286 7.4315 18.5246L20.4552 16.5153C20.7009 16.4774 20.9215 16.3435 21.0685 16.143C21.2154 15.9424 21.2767 15.6917 21.2389 15.446C21.201 15.2003 21.067 14.9797 20.8665 14.8327C20.666 14.6857 20.4153 14.6244 20.1695 14.6623Z" fill="#2A3D2B"/>
<path d="M20.3125 14.9639L7.2887 16.9727C5.3594 17.1063 5.3125 18.9242 5.3125 18.9242V26.4013" stroke="#FCC867" stroke-width="1.875" stroke-linecap="round" stroke-linejoin="round"/>
<path d="M4.60967 24.6514C4.44702 24.6514 4.28942 24.7099 4.1637 24.8169C4.03797 24.9239 3.95189 25.0727 3.92011 25.2381L2.51353 32.5298C2.49323 32.6355 2.4958 32.7446 2.52105 32.8492C2.5463 32.9537 2.5936 33.0512 2.65954 33.1346C2.72549 33.2179 2.80844 33.2851 2.90243 33.3312C2.99642 33.3773 3.0991 33.4013 3.20308 33.4013H7.42284C7.52682 33.4013 7.6295 33.3773 7.72349 33.3312C7.81748 33.2851 7.90043 33.2179 7.96638 33.1346C8.03232 33.0512 8.07962 32.9537 8.10487 32.8492C8.13012 32.7446 8.13269 32.6355 8.11239 32.5298L6.70581 25.2381C6.67403 25.0727 6.58795 24.9239 6.46222 24.8169C6.3365 24.7099 6.1789 24.6514 6.01625 24.6514H4.60967Z" fill="#FAAD1B"/>
<path opacity="0.1" d="M20.4126 7.16233C20.1387 7.14732 19.8624 7.14773 19.5887 7.16355C18.7602 7.20984 17.9877 7.39533 17.3975 7.68967L3.57669 14.6013C3.16596 14.811 2.86146 15.0668 2.68861 15.3473C2.51576 15.6278 2.47956 15.9249 2.58304 16.2138C2.70409 15.8415 3.05096 15.4968 3.57669 15.2263L17.3975 8.31467C17.9877 8.02033 18.7602 7.83484 19.5887 7.78855C20.1378 7.75753 20.6938 7.78871 21.2156 7.87979C21.7373 7.97087 22.2114 8.1195 22.6026 8.31467L36.4234 15.2263C36.9585 15.4951 37.3145 15.84 37.4427 16.2138C37.5429 15.9239 37.5026 15.6262 37.3253 15.3456C37.1479 15.065 36.8387 14.8098 36.4234 14.6013L22.6026 7.68967C22.013 7.395 21.241 7.20908 20.4126 7.16233Z" fill="#808080"/>
</svg>
