<svg width="60" height="25" viewBox="0 0 60 25" fill="none" xmlns="http://www.w3.org/2000/svg">
<path fill-rule="evenodd" clip-rule="evenodd" d="M59.0349 12.9793C59.1614 12.8298 59.3857 12.8366 59.5009 12.9961H59.5L59.9383 13.6033C60.0214 13.72 60.0209 13.881 59.934 13.9946C59.1731 14.9947 57.84 15.9574 56.2314 16.0505C54.9617 16.1237 53.9146 15.6363 53.3446 14.7147C53.2317 14.5324 52.9829 14.5218 52.8563 14.6941C52.18 15.6141 51.3617 16.3335 50.5091 16.3831C48.9906 16.4708 48.5617 15.4387 48.9371 13.1631C48.9749 12.9366 48.7789 12.7451 48.5677 12.8015C48.2529 12.8862 47.9186 12.9236 47.5794 12.8939C47.4383 12.8816 47.306 12.9686 47.2634 13.1104C46.7014 14.981 45.364 16.721 43.6329 16.8217C42.5277 16.8858 40.8769 16.2442 41.042 13.5636C41.0557 13.3454 40.8626 13.1738 40.6637 13.2348C40.3171 13.3416 39.944 13.392 39.564 13.3592C39.4231 13.3469 39.2914 13.4339 39.2489 13.5758C38.6869 15.4463 37.3494 17.1864 35.6183 17.287C34.5131 17.3511 32.8623 16.7096 33.0274 14.029C33.0411 13.8107 32.848 13.6391 32.6491 13.7002C32.3026 13.807 31.9294 13.8581 31.5494 13.8245C31.4086 13.8123 31.2769 13.8993 31.2343 14.0411C30.672 15.9117 29.3349 17.6517 27.6038 17.7524C26.8175 17.7982 25.7542 17.4861 25.2659 16.3373C25.1719 16.1154 24.8898 16.0817 24.7502 16.2748C24.0667 17.22 23.2341 17.966 22.3646 18.0164C21.4735 18.0682 20.986 17.7059 20.774 17.0597C20.6988 16.8316 20.4174 16.7774 20.2655 16.9583C19.6572 17.683 18.9643 18.2139 18.2633 18.2544C17.1827 18.3177 16.5605 17.506 16.5092 16.5227C16.4499 15.3754 16.9396 14.032 17.4864 12.5658C17.5624 12.3621 17.4249 12.1416 17.2174 12.1325C16.902 12.1188 16.5418 12.0852 16.2032 12.0211C16.0506 11.9914 15.9024 12.0875 15.8589 12.2447C15.2123 14.5843 14.222 16.8774 13.3865 18.233C13.2932 18.3848 13.1001 18.4252 12.9598 18.3207L12.3218 17.8447C12.1909 17.7463 12.1555 17.5571 12.243 17.4145C13.4503 15.4547 14.5222 12.3865 14.8919 10.1171C14.915 9.97213 15.0314 9.86457 15.171 9.85617L16.0195 9.80658C16.2141 9.79514 16.3675 9.97899 16.332 10.1811L16.3284 10.2025C16.2965 10.3825 16.4152 10.5519 16.5866 10.5756C17.3475 10.6816 18.4847 10.6945 19.2564 10.664C19.4734 10.6556 19.6268 10.883 19.5479 11.0958C18.9288 12.7649 18.0991 15.0779 18.1468 15.9933C18.1685 16.4067 18.3487 16.6325 18.6655 16.6142C19.2717 16.5792 20.204 15.3441 20.9107 13.9687C20.9237 13.9443 20.9331 13.9176 20.9389 13.8901C21.177 12.8132 21.5304 11.6124 21.8875 10.3991L21.9096 10.3238C21.9465 10.1972 22.0543 10.1087 22.1802 10.1011L23.1965 10.0423C23.4063 10.0301 23.5632 10.2437 23.4996 10.455C23.4473 10.6293 23.3951 10.8023 23.3435 10.9739C22.4492 13.944 21.6982 16.4385 22.7097 16.3801C23.3708 16.3419 24.3075 15.2052 25.1133 13.5872C25.1263 13.5605 25.1357 13.5323 25.1415 13.5026C25.1821 13.2912 25.2312 13.0701 25.2913 12.8389C25.7611 10.9373 26.2939 9.05364 26.8273 7.16766C26.9919 6.5856 27.1566 6.00331 27.3195 5.42022C27.3557 5.2913 27.4641 5.20052 27.5914 5.19289L28.6346 5.13263C28.8466 5.12042 29.0034 5.33631 28.9369 5.54914C28.5202 6.87344 28.0848 8.28394 27.6711 9.64181C27.5842 9.92789 27.8866 10.1659 28.1253 10.0011C28.5369 9.71581 29.0129 9.52661 29.4737 9.49991C30.6477 9.43202 31.4469 10.4108 31.5234 11.8853C31.5277 11.9632 31.5323 12.0471 31.5343 12.1325C31.5386 12.2958 31.6594 12.4277 31.8137 12.4414C32.3663 12.491 32.9311 12.3247 33.3674 11.9304C33.4123 11.8899 33.4426 11.835 33.4577 11.7755C33.8903 10.0735 34.3677 8.38418 34.8454 6.69275C35.0091 6.11366 35.1729 5.53432 35.3349 4.95412C35.3709 4.8252 35.4794 4.73442 35.6069 4.72679L36.6497 4.66653C36.8617 4.65432 37.0189 4.8702 36.9523 5.08304C36.5354 6.40734 36.1 7.81784 35.6863 9.17571C35.5994 9.46178 35.902 9.69977 36.1406 9.53501C36.5523 9.24971 37.0283 9.06053 37.4889 9.03381C38.6629 8.96595 39.462 9.94465 39.5389 11.4193C39.5431 11.497 39.5474 11.581 39.5497 11.6664C39.5531 11.8297 39.6749 11.9616 39.8289 11.9754C40.3814 12.0249 40.9463 11.8586 41.3826 11.4642C41.4274 11.4239 41.4577 11.3689 41.4731 11.3094C41.9057 9.60742 42.3829 7.91813 42.8609 6.22673C43.0246 5.64761 43.188 5.06824 43.35 4.48802C43.3863 4.3591 43.4949 4.26832 43.622 4.26069L44.6651 4.20043C44.8771 4.18822 45.034 4.40411 44.9674 4.61694C44.5509 5.94124 44.1154 7.35174 43.7017 8.7096C43.6149 8.99568 43.9171 9.2337 44.156 9.06893C44.5674 8.7836 45.0434 8.59443 45.5043 8.56774C46.6783 8.49984 47.4774 9.47855 47.5543 10.9532C47.5586 11.0317 47.5629 11.1149 47.5649 11.2003C47.5694 11.3628 47.6894 11.4955 47.8434 11.5093C48.378 11.5573 48.9249 11.4032 49.3546 11.0363C49.4023 10.9959 49.4354 10.9386 49.4514 10.8761C49.944 8.95219 50.6674 6.43176 51.3649 4.01963C51.4017 3.89224 51.51 3.80375 51.636 3.79612L52.6697 3.73585C52.8794 3.72365 53.0363 3.93572 52.9734 4.14703C52.0134 7.37692 51.2309 10.2025 50.7991 11.8693C50.2254 14.1304 50.2031 14.7826 50.8554 14.7445C51.4031 14.7124 52.1409 13.9252 52.8366 12.7351C52.8643 12.6886 52.8786 12.6352 52.8809 12.5811C52.972 10.1987 54.4134 8.03145 56.556 7.9071C57.9911 7.82395 58.7774 8.92246 58.8337 10.0034C58.9409 12.0669 56.928 13.3859 54.9771 13.2638C54.75 13.2493 54.5849 13.4965 54.6849 13.7116C54.9574 14.302 55.5311 14.6316 56.5106 14.5744C57.4423 14.521 58.4194 13.7063 59.0349 12.9793ZM26.7871 13.5583C26.3241 15.4387 26.8862 16.1748 27.6131 16.1328C28.8066 16.0634 29.9611 13.8473 29.8723 12.137C29.8331 11.3902 29.402 11.0012 28.8986 11.0302C28.0602 11.079 27.1575 12.0577 26.7871 13.5583ZM34.8023 13.093C34.3394 14.9733 34.9014 15.7095 35.6286 15.6675H35.6277C36.8211 15.5981 37.9763 13.3821 37.8874 11.6717C37.8491 10.9249 37.4171 10.5359 36.9137 10.5648C36.0754 10.6137 35.1729 11.5924 34.8023 13.093ZM42.8177 12.6276C42.3549 14.508 42.9169 15.2442 43.6437 15.2022H43.6431C44.8357 15.1328 45.9917 12.9167 45.9029 11.2064C45.8643 10.4596 45.4326 10.0705 44.9291 10.0995C44.0909 10.1483 43.188 11.1271 42.8177 12.6276ZM57.3097 10.1697C57.3026 9.6769 57.0037 9.31989 56.5191 9.34812H56.5186C55.5666 9.40379 54.8214 10.4481 54.5843 11.7152C54.5466 11.9166 54.692 12.1043 54.8866 12.0997C56.1163 12.0685 57.3489 11.2461 57.3097 10.1697ZM12.6721 11.0845C12.5477 7.26644 10.0978 4.74677 6.47749 4.87798C4.92306 4.94969 3.14434 5.547 1.80618 6.61498C1.68032 6.71568 1.64777 6.90028 1.73312 7.04064L2.30095 7.97743C2.39787 8.13762 2.60402 8.17042 2.74507 8.05143C3.76354 7.19397 5.1538 6.63178 6.49123 6.57226C8.97229 6.46775 10.7951 8.07737 10.9015 11.1867C11.0345 14.8072 8.63306 18.9487 4.77403 19.173C4.63949 19.1806 4.49917 19.1837 4.35883 19.1837C4.16209 19.1837 4.01671 18.9891 4.06589 18.7877C4.8102 15.7432 5.67894 12.4782 6.56503 9.43981C6.62651 9.22849 6.47026 9.01794 6.26123 9.03016L5.1328 9.09577C5.00623 9.10338 4.89771 9.19264 4.86083 9.32079C4.00946 12.3066 3.15737 15.5449 2.39064 18.5833C2.34651 18.7587 2.17075 18.8595 2.00727 18.803C1.60727 18.6649 1.24198 18.5078 0.930943 18.3239C0.781934 18.2354 0.593146 18.298 0.516472 18.4597L0.0318343 19.4865C-0.039776 19.6383 0.0130277 19.8244 0.154079 19.906C1.25283 20.5377 2.92086 20.8985 4.59754 20.8017C10.1152 20.4812 12.8183 15.3167 12.6721 11.086V11.0845ZM23.5155 6.39342C22.8443 6.43232 22.2489 7.1967 22.2909 8.00227C22.3184 8.5332 22.6548 8.88792 23.177 8.85819C23.8483 8.81927 24.4602 8.01445 24.4204 7.2478C24.393 6.71687 24.0001 6.36519 23.5155 6.39342Z" fill="black"/>
</svg>
