<svg width="40" height="61" viewBox="0 0 40 61" fill="none" xmlns="http://www.w3.org/2000/svg">
<g clip-path="url(#clip0_24_1346)">
<path d="M10 60.2764C15.52 60.2764 20 55.7964 20 50.2764V40.2764H10C4.48 40.2764 0 44.7564 0 50.2764C0 55.7964 4.48 60.2764 10 60.2764Z" fill="#0ACF83"/>
<path d="M0 30.2764C0 24.7564 4.48 20.2764 10 20.2764H20V40.2764H10C4.48 40.2764 0 35.7964 0 30.2764Z" fill="#A259FF"/>
<path d="M0 10.2764C0 4.75637 4.48 0.276367 10 0.276367H20V20.2764H10C4.48 20.2764 0 15.7964 0 10.2764Z" fill="#F24E1E"/>
<path d="M20 0.276367H30C35.52 0.276367 40 4.75637 40 10.2764C40 15.7964 35.52 20.2764 30 20.2764H20V0.276367Z" fill="#FF7262"/>
<path d="M40 30.2764C40 35.7964 35.52 40.2764 30 40.2764C24.48 40.2764 20 35.7964 20 30.2764C20 24.7564 24.48 20.2764 30 20.2764C35.52 20.2764 40 24.7564 40 30.2764Z" fill="#1ABCFE"/>
</g>
<defs>
<clipPath id="clip0_24_1346">
<rect width="40" height="60" fill="white" transform="translate(0 0.276367)"/>
</clipPath>
</defs>
</svg>
