<svg width="60" height="61" viewBox="0 0 60 61" fill="none" xmlns="http://www.w3.org/2000/svg">
<g clip-path="url(#clip0_24_1311)">
<mask id="mask0_24_1311" style="mask-type:luminance" maskUnits="userSpaceOnUse" x="-6" y="-4" width="73" height="73">
<path d="M-5.96362 -3.06174H66.2977V68.9971H-5.96362V-3.06174Z" fill="white"/>
</mask>
<g mask="url(#mask0_24_1311)">
<path d="M47.0756 50.6502C47.0756 53.8962 39.5357 56.5273 30.2347 56.5273C20.9337 56.5273 13.3938 53.8962 13.3938 50.6502C13.3938 47.4042 20.9334 44.7721 30.2347 44.7721C39.536 44.7721 47.0756 47.4076 47.0756 50.6502Z" fill="#A0DCF2"/>
</g>
<mask id="mask1_24_1311" style="mask-type:luminance" maskUnits="userSpaceOnUse" x="20" y="48" width="20" height="17">
<path d="M34.7584 50.4284C34.8731 50.0567 34.8922 49.4836 33.742 49.7431C33.742 49.7431 30.599 50.1908 30.4491 53.8475L30.3775 60.8532H29.6221L29.5509 53.8475C29.401 50.1912 26.2583 49.7431 26.2583 49.7431C25.1115 49.4836 25.1266 50.0561 25.2413 50.4277C24.1139 48.5135 21.095 48.761 21.095 48.761C20.0469 49.1337 21.02 49.8052 21.02 49.8052C22.666 50.4017 22.8165 52.1931 22.8165 52.1931V57.2539L22.9905 61.1665C23.3642 62.9092 24.2865 63.9394 25.1911 64.5459L34.827 64.5349C35.9925 63.7459 37.1845 62.251 37.1845 59.4284V52.1931C37.1845 52.1931 37.334 50.4017 38.981 49.8052C38.981 49.8052 39.9532 49.1333 38.9057 48.761C38.9057 48.761 38.7779 48.751 38.5655 48.7503C37.7442 48.7503 35.655 48.9071 34.7591 50.4284M25.6608 57.6409V52.1191C25.6608 51.5796 25.5655 51.1259 25.4022 50.7446C26.4861 51.5873 26.5587 53.6987 26.5587 53.6987V60.591C25.4798 59.8297 25.6608 57.6399 25.6608 57.6399M33.4456 53.6977C33.4456 53.6977 33.5182 51.586 34.6018 50.7436C34.4389 51.1249 34.3436 51.5786 34.3436 52.1181V57.6403C34.3436 57.6403 34.5242 59.6753 33.4456 60.5133V53.6977Z" fill="white"/>
</mask>
<g mask="url(#mask1_24_1311)">
<path d="M47.0756 50.6502C47.0756 53.8962 39.5357 56.5273 30.2347 56.5273C20.9337 56.5273 13.3938 53.8962 13.3938 50.6502C13.3938 47.4042 20.9334 44.7721 30.2347 44.7721C39.536 44.7721 47.0756 47.4076 47.0756 50.6502Z" fill="#82BDE7"/>
</g>
<mask id="mask2_24_1311" style="mask-type:luminance" maskUnits="userSpaceOnUse" x="-6" y="-4" width="73" height="73">
<path d="M-5.96362 -3.06174H66.2977V68.9971H-5.96362V-3.06174Z" fill="white"/>
</mask>
<g mask="url(#mask2_24_1311)">
<path d="M10.9976 33.3678L10.5115 35.0568C10.5115 35.0568 10.385 35.6673 10.9618 35.7754C11.564 35.7637 11.5148 35.2016 11.4726 35.0194L10.9976 33.3678Z" fill="#A0DCF2"/>
<path d="M59.9554 26.2861L59.9999 26.0666C55.0594 25.0814 49.9897 25.0714 46.9193 25.1985C47.4231 23.3884 47.575 21.3054 47.575 18.9825C47.575 15.6511 46.3198 12.9859 44.2821 10.9579C44.6384 9.81197 45.1141 7.26623 43.807 4.0079C43.807 4.0079 41.4987 3.27797 36.2878 6.75782C34.2451 6.24873 32.0713 5.9972 29.894 5.9972C27.4987 5.9972 25.0783 6.30145 22.8208 6.91895C17.4393 3.25763 15.0641 4.00757 15.0641 4.00757C13.5131 7.8774 14.4719 10.7364 14.763 11.4476C12.9404 13.4092 11.8277 15.9126 11.8277 18.9821C11.8277 21.2997 12.0927 23.3784 12.739 25.1852C9.64549 25.0731 4.76016 25.1161 -0.00708008 26.0659L0.0370796 26.2854C4.82941 25.3296 9.74485 25.2963 12.8166 25.4124C12.9588 25.786 13.1177 26.1463 13.295 26.4999C10.2547 26.5977 5.06392 26.9837 0.0889334 28.3835L0.149821 28.5986C5.16395 27.1885 10.4002 26.8118 13.4111 26.7204C15.2277 30.0965 18.809 32.2776 25.1803 32.9589C24.2757 33.5647 23.3537 34.5949 22.979 36.3383C21.7469 36.9254 17.8461 38.3606 15.5054 34.3467C15.5054 34.3467 14.1953 31.9581 11.6875 31.7712C11.6875 31.7712 9.25541 31.7379 11.5193 33.2825C11.5193 33.2825 13.1475 34.0474 14.2702 36.9188C14.2702 36.9188 15.7355 41.8211 22.8051 40.2481V45.3123C22.8051 45.3123 22.6555 47.1037 21.0086 47.7002C21.0086 47.7002 20.0357 48.3721 21.0835 48.7444C21.0835 48.7444 25.6484 49.1181 25.6484 45.3867V39.8648C25.6484 39.8648 25.4677 37.6747 26.5459 36.9138V45.9902C26.5459 45.9902 26.4717 48.1543 25.3489 48.9753C25.3489 48.9753 24.6006 50.318 26.2469 49.9454C26.2469 49.9454 29.3896 49.4977 29.5394 45.841L29.611 36.6626H30.3661L30.438 45.841C30.5876 49.4974 33.7306 49.9454 33.7306 49.9454C35.3765 50.318 34.6282 48.9753 34.6282 48.9753C33.5058 48.1546 33.4312 45.9902 33.4312 45.9902V36.9985C34.5094 37.8325 34.3291 39.8715 34.3291 39.8715V45.3934C34.3291 49.1244 38.8936 48.7511 38.8936 48.7511C39.9407 48.3785 38.9689 47.7069 38.9689 47.7069C37.3222 47.1064 37.1724 45.319 37.1724 45.319V38.0807C37.1724 35.2584 35.9804 33.7632 34.8148 32.9742C41.6061 32.3023 44.8699 30.1145 46.3726 26.7151C49.3487 26.7965 54.7048 27.1581 59.828 28.6L59.8888 28.3848C54.7948 26.952 49.4745 26.5813 46.468 26.4939C46.6105 26.1503 46.7346 25.7934 46.845 25.4264C49.891 25.2929 54.9838 25.2979 59.9437 26.2871" fill="#292929"/>
<path d="M40.9319 18.8228C42.3956 20.1448 43.2517 21.7418 43.2517 23.4615C43.2517 31.4931 37.2473 31.7109 29.8415 31.7109C22.4357 31.7109 16.4307 30.6024 16.4307 23.4649C16.4307 21.7561 17.2751 20.1695 18.7206 18.8528C21.1313 16.6583 25.2121 17.8203 29.8408 17.8203C34.4515 17.8203 38.5169 16.6466 40.9309 18.8261" fill="#F5CDB5"/>
<path d="M25.3821 23.8736C25.3821 26.0854 24.1329 27.8789 22.592 27.8789C21.0511 27.8789 19.8013 26.0858 19.8013 23.8736C19.8013 21.6615 21.0511 19.869 22.592 19.869C24.1329 19.869 25.3821 21.6615 25.3821 23.8736Z" fill="white"/>
<path d="M24.4865 23.9242C24.4865 25.3988 23.6501 26.5938 22.6264 26.5938C21.6027 26.5938 20.7664 25.3988 20.7664 23.9242C20.7664 22.4497 21.5987 21.2534 22.6264 21.2534C23.6541 21.2534 24.4865 22.449 24.4865 23.9242Z" fill="#B1645A"/>
<path d="M40.3516 23.8736C40.3516 26.0854 39.1024 27.8789 37.5608 27.8789C36.0193 27.8789 34.7708 26.0858 34.7708 23.8736C34.7708 21.6615 36.0203 19.869 37.5608 19.869C39.1014 19.869 40.3516 21.6615 40.3516 23.8736Z" fill="white"/>
<path d="M39.4558 23.9239C39.4558 25.3984 38.6195 26.5934 37.5958 26.5934C36.5721 26.5934 35.7357 25.3984 35.7357 23.9239C35.7357 22.4493 36.5721 21.253 37.5958 21.253C38.6195 21.253 39.4558 22.4487 39.4558 23.9239ZM30.5784 27.4267C30.5784 27.8111 30.2659 28.1226 29.8806 28.1226C29.4952 28.1226 29.1827 27.8111 29.1827 27.4267C29.1827 27.0424 29.4948 26.7308 29.8806 26.7308C30.2663 26.7308 30.5784 27.0424 30.5784 27.4267ZM28.255 29.1865C28.2452 29.1588 28.2409 29.1294 28.2425 29.1001C28.2441 29.0707 28.2514 29.042 28.2641 29.0155C28.2768 28.9889 28.2946 28.9652 28.3166 28.9455C28.3385 28.9259 28.364 28.9107 28.3918 28.9009C28.4196 28.8911 28.4491 28.8869 28.4785 28.8885C28.5079 28.89 28.5368 28.8974 28.5634 28.91C28.5899 28.9227 28.6138 28.9405 28.6335 28.9623C28.6532 28.9842 28.6684 29.0097 28.6782 29.0374C28.8575 29.5428 29.3383 29.8824 29.8749 29.8824C30.4115 29.8824 30.8919 29.5428 31.0719 29.0374C31.0817 29.0097 31.0969 28.9842 31.1166 28.9624C31.1363 28.9405 31.1601 28.9228 31.1867 28.9101C31.2132 28.8975 31.242 28.8902 31.2715 28.8886C31.3009 28.8871 31.3303 28.8913 31.3581 28.9011C31.3858 28.9109 31.4114 28.926 31.4333 28.9457C31.4552 28.9653 31.473 28.9891 31.4857 29.0156C31.4984 29.0421 31.5057 29.0708 31.5072 29.1001C31.5088 29.1295 31.5045 29.1588 31.4947 29.1865C31.3741 29.5184 31.1539 29.8052 30.8641 30.0079C30.5743 30.2106 30.2289 30.3193 29.8749 30.3193C29.5209 30.3193 29.1755 30.2106 28.8856 30.0079C28.5958 29.8052 28.3756 29.5184 28.255 29.1865Z" fill="#B1645A"/>
<path d="M12.7842 32.3715C12.7842 32.5574 12.5661 32.7071 12.2975 32.7071C12.0288 32.7071 11.811 32.557 11.811 32.3715C11.811 32.186 12.0285 32.0353 12.2975 32.0353C12.5664 32.0353 12.7842 32.1854 12.7842 32.3715ZM14.1318 33.1171C14.1318 33.303 13.9136 33.4534 13.645 33.4534C13.3764 33.4534 13.1586 33.3033 13.1586 33.1171C13.1586 32.931 13.376 32.7815 13.645 32.7815C13.914 32.7815 14.1318 32.9317 14.1318 33.1171ZM14.9554 34.0846C14.9554 34.2698 14.738 34.4202 14.4686 34.4202C14.1993 34.4202 13.9826 34.2701 13.9826 34.0846C13.9826 33.8991 14.2 33.7483 14.4686 33.7483C14.7373 33.7483 14.9554 33.8984 14.9554 34.0846ZM15.7031 35.2045C15.7031 35.3903 15.4857 35.5408 15.217 35.5408C14.9484 35.5408 14.7303 35.3907 14.7303 35.2045C14.7303 35.0184 14.9477 34.8682 15.217 34.8682C15.4863 34.8682 15.7031 35.0184 15.7031 35.2045ZM16.5268 36.253C16.5268 36.4382 16.3093 36.5886 16.0403 36.5886C15.7714 36.5886 15.5536 36.4385 15.5536 36.253C15.5536 36.0676 15.7717 35.9168 16.0403 35.9168C16.309 35.9168 16.5268 36.0669 16.5268 36.253ZM17.6498 37.1481C17.6498 37.3339 17.4324 37.4844 17.1631 37.4844C16.8937 37.4844 16.677 37.3343 16.677 37.1481C16.677 36.9619 16.8944 36.8125 17.1631 36.8125C17.4317 36.8125 17.6498 36.9626 17.6498 37.1481Z" fill="#C5E6DA"/>
<path d="M19.2215 37.7454C19.2215 37.9306 19.004 38.0811 18.7351 38.0811C18.4661 38.0811 18.2483 37.9309 18.2483 37.7454C18.2483 37.56 18.4657 37.4092 18.7351 37.4092C19.0044 37.4092 19.2215 37.5593 19.2215 37.7454Z" fill="#C5E6DA"/>
<path d="M20.7859 37.7454C20.7859 37.9306 20.5685 38.0811 20.2995 38.0811C20.0305 38.0811 19.8127 37.9309 19.8127 37.7454C19.8127 37.56 20.0302 37.4092 20.2995 37.4092C20.5688 37.4092 20.7859 37.5593 20.7859 37.7454Z" fill="#C5E6DA"/>
<path d="M22.3736 37.486C22.3736 37.6718 22.1561 37.8223 21.8872 37.8223C21.6182 37.8223 21.4004 37.6721 21.4004 37.486C21.4004 37.2998 21.6178 37.1497 21.8872 37.1497C22.1565 37.1497 22.3736 37.2998 22.3736 37.486Z" fill="#C5E6DA"/>
</g>
</g>
<defs>
<clipPath id="clip0_24_1311">
<rect width="60" height="60" fill="white" transform="translate(0 0.276367)"/>
</clipPath>
</defs>
</svg>
