<svg width="60" height="61" viewBox="0 0 60 61" fill="none" xmlns="http://www.w3.org/2000/svg">
<g clip-path="url(#clip0_24_1295)">
<path d="M30 45.2705C38.2843 45.2705 45 38.5548 45 30.2705C45 21.9862 38.2843 15.2705 30 15.2705C21.7157 15.2705 15 21.9862 15 30.2705C15 38.5548 21.7157 45.2705 30 45.2705Z" fill="white"/>
<path d="M30 15.2763H55.9762C53.344 10.7156 49.5573 6.92824 44.997 4.29513C40.4367 1.66203 35.2635 0.275987 29.9977 0.276367C24.7318 0.276747 19.5588 1.66354 14.9989 4.2973C10.439 6.93106 6.65287 10.719 4.02124 15.2801L17.0087 37.7763L17.0212 37.7738C15.6998 35.4954 15.0024 32.9089 14.9993 30.2749C14.9963 27.641 15.6877 25.0529 17.0039 22.7714C18.32 20.4899 20.2145 18.5957 22.4961 17.2799C24.7778 15.964 27.3661 15.2729 30 15.2763Z" fill="url(#paint0_linear_24_1295)"/>
<path d="M30 42.1514C36.5584 42.1514 41.875 36.8347 41.875 30.2764C41.875 23.718 36.5584 18.4014 30 18.4014C23.4416 18.4014 18.125 23.718 18.125 30.2764C18.125 36.8347 23.4416 42.1514 30 42.1514Z" fill="#1A73E8"/>
<path d="M42.9887 37.7803L30.0012 60.2765C35.2671 60.2772 40.4403 58.8915 45.0007 56.2586C49.5611 53.6258 53.348 49.8387 55.9805 45.2782C58.6131 40.7176 59.9985 35.5443 59.9976 30.2785C59.9966 25.0126 58.6092 19.8399 55.975 15.2803H29.9987L29.995 15.2928C32.6287 15.2877 35.2172 15.9771 37.4996 17.2914C39.7819 18.6057 41.6775 20.4984 42.9951 22.7788C44.3128 25.0592 45.006 27.6467 45.0049 30.2804C45.0038 32.9141 44.3084 35.501 42.9887 37.7803Z" fill="url(#paint1_linear_24_1295)"/>
<path d="M17.0113 37.7795L4.0226 15.2832C1.38897 19.8432 0.00236612 25.0163 0.00219728 30.2822C0.00202845 35.5482 1.38831 40.7213 4.02163 45.2815C6.65496 49.8418 10.4425 53.6283 15.0035 56.2604C19.5644 58.8924 24.7379 60.2773 30.0038 60.2757L42.9913 37.7795L42.9826 37.7707C41.67 40.054 39.7788 41.9509 37.4994 43.2702C35.22 44.5896 32.6332 45.2847 29.9995 45.2856C27.3658 45.2865 24.7785 44.5931 22.4982 43.2753C20.218 41.9575 18.3254 40.0618 17.0113 37.7795Z" fill="url(#paint2_linear_24_1295)"/>
</g>
<defs>
<linearGradient id="paint0_linear_24_1295" x1="4.02124" y1="19.0263" x2="55.9762" y2="19.0263" gradientUnits="userSpaceOnUse">
<stop stop-color="#D93025"/>
<stop offset="1" stop-color="#EA4335"/>
</linearGradient>
<linearGradient id="paint1_linear_24_1295" x1="25.9025" y1="59.8753" x2="51.88" y2="14.8815" gradientUnits="userSpaceOnUse">
<stop stop-color="#FCC934"/>
<stop offset="1" stop-color="#FBBC04"/>
</linearGradient>
<linearGradient id="paint2_linear_24_1295" x1="33.2476" y1="58.4032" x2="7.2701" y2="13.4082" gradientUnits="userSpaceOnUse">
<stop stop-color="#1E8E3E"/>
<stop offset="1" stop-color="#34A853"/>
</linearGradient>
<clipPath id="clip0_24_1295">
<rect width="60" height="60" fill="white" transform="translate(0 0.276367)"/>
</clipPath>
</defs>
</svg>
