<svg width="60" height="44" viewBox="0 0 60 44" fill="none" xmlns="http://www.w3.org/2000/svg">
<path d="M58.6759 7.00988C57.9755 4.36139 55.9538 2.29249 53.3656 1.57582C48.7095 0.276367 29.9696 0.276367 29.9696 0.276367C29.9696 0.276367 11.2298 0.315745 6.57367 1.6152C3.98551 2.33187 1.96375 4.40076 1.2634 7.04926C-0.144971 15.5154 -0.69139 28.4154 1.30188 36.5429C2.00223 39.1913 4.02399 41.2602 6.61215 41.9769C11.2683 43.2764 30.0081 43.2764 30.0081 43.2764C30.0081 43.2764 48.748 43.2764 53.4041 41.9769C55.9923 41.2602 58.014 39.1913 58.7144 36.5429C60.1997 28.0649 60.6576 15.1728 58.6759 7.00988Z" fill="#FF0000"/>
<path d="M24.0054 30.9911L39.5514 21.7768L24.0054 12.5625V30.9911Z" fill="white"/>
</svg>
