<svg width="40" height="41" viewBox="0 0 40 41" fill="none" xmlns="http://www.w3.org/2000/svg">
<path d="M31.4287 14.5624C31.4287 8.19501 26.3675 3.13379 20.0001 3.13379C13.6328 3.13379 8.57153 8.19501 8.57153 14.5624C8.57153 21.2562 15.1021 23.3787 15.1021 28.1134V29.2562H24.8981V28.1134C24.8981 23.3787 31.4287 21.2562 31.4287 14.5624Z" fill="#FAAD1B"/>
<path d="M16.1633 7.94922C16.1633 7.94922 13.3877 14.2349 14.6122 18.3982C15.5102 21.337 18.6122 22.0717 20 21.0104C20.1633 22.2349 19.6735 23.2962 19.2653 24.3574L21.7143 25.2553C23.2653 20.6839 20.6531 15.4594 19.102 13.0104C22.7755 15.6227 23.8367 20.0309 23.8367 20.0309C24.1633 19.8676 24.3265 19.5411 24.7347 19.1329C27.0204 16.3574 25.7959 9.9084 16.1633 7.94922ZM15.102 28.439V32.5206C15.102 34.0717 16.2449 35.3778 17.7143 35.7043C18.0408 36.6839 18.9388 37.4186 20 37.4186C21.0612 37.4186 22.0408 36.6839 22.2857 35.7043C23.7551 35.3778 24.898 34.0717 24.898 32.5206V28.439H15.102Z" fill="#546756"/>
<path d="M24.8977 32.5202L15.4283 33.8263C15.6732 34.3977 16.163 34.9692 16.7345 35.2957L24.4079 34.2345C24.7345 33.7447 24.8977 33.1732 24.8977 32.5202ZM15.1018 32.2753L24.8977 30.8875V29.2549L15.1018 30.6426V32.2753Z" fill="#2A3D2B"/>
</svg>
