<svg width="154" height="70" viewBox="0 0 154 70" fill="none" xmlns="http://www.w3.org/2000/svg">
<path d="M49.0053 43.9496L50.1151 41.1181C46.081 39.4453 44.6806 36.25 44.8071 34.0009C42.8065 37.0083 43.1783 41.8591 49.0053 43.9496ZM38.6718 54.6304L41.3421 53.1747C39.327 49.3002 40.3081 45.9523 41.8508 44.3107C38.3851 45.3286 35.5518 49.2834 38.6718 54.6304ZM23.9893 55.8986L26.9705 56.5C27.9174 52.2366 30.821 50.3026 33.0579 50.0366C29.7488 48.5886 25.0362 49.7971 23.9893 55.8986ZM11.7532 47.5502L13.6504 49.9271C17.1161 47.2698 20.5836 47.6547 22.4681 48.8889C20.8639 45.6526 16.4772 43.5491 11.7532 47.5502ZM7.87479 33.3373L7.80029 36.3776C12.1633 36.5697 14.5721 39.0934 15.2224 41.2502C16.0737 37.7399 14.0654 33.3088 7.87479 33.3373ZM14.001 19.8868L11.9896 22.1679C15.2083 25.1196 15.4314 28.6011 14.5432 30.6714C17.4517 28.5296 18.7617 23.8442 14.001 19.8868ZM27.3085 13.5L24.3014 13.9546C24.8698 18.2847 22.8028 21.0951 20.7917 22.1101C24.3965 22.3389 28.4116 19.5917 27.3085 13.5ZM41.5897 17.252L38.9939 15.6673C36.646 19.3497 33.2561 20.1739 31.0631 19.6588C33.6774 22.1512 38.5191 22.6276 41.5897 17.252ZM50.1995 29.3103L49.2296 26.4278C45.064 27.7395 41.9374 26.1919 40.5886 24.3876C40.9892 27.9774 44.3919 31.4544 50.1995 29.3103Z" stroke="#FAAD1B" stroke-linecap="round" stroke-linejoin="round"/>
<g filter="url(#filter0_iiii_53_1287)">
<path d="M29 23C30.3255 23 31.4 24.0745 31.4 25.4C31.4 25.4249 31.3996 25.4497 31.3988 25.4744C31.3881 25.817 31.4672 26.1704 31.7096 26.4127L32.7867 27.4899C33.0291 27.7323 33.3826 27.8117 33.7253 27.8012C33.7501 27.8004 33.775 27.8 33.8 27.8C35.1255 27.8 36.2 28.8745 36.2 30.2C36.2 30.2249 36.1996 30.2497 36.1988 30.2744C36.1881 30.617 36.2672 30.9704 36.5096 31.2127L37.5867 32.2899C37.8291 32.5323 38.1826 32.6117 38.5253 32.6012C38.5501 32.6004 38.575 32.6 38.6 32.6C39.9255 32.6 41 33.6745 41 35C41 36.3255 39.9255 37.4 38.6 37.4C38.5379 37.4 38.4764 37.3976 38.4156 37.3929C38.0519 37.3647 37.6704 37.4371 37.4125 37.6951L36.4953 38.6126C36.2374 38.8705 36.165 39.2518 36.1929 39.6154C36.1976 39.6763 36.2 39.7379 36.2 39.8C36.2 41.1255 35.1255 42.2 33.8 42.2C33.7379 42.2 33.6764 42.1976 33.6155 42.1929C33.2518 42.1647 32.8705 42.237 32.6125 42.495L31.695 43.4125C31.437 43.6705 31.3647 44.0518 31.3929 44.4155C31.3976 44.4764 31.4 44.5379 31.4 44.6C31.4 45.9255 30.3255 47 29 47C27.6745 47 26.6 45.9255 26.6 44.6C26.6 43.2745 27.6745 42.2 29 42.2C29.2942 42.2 29.5927 42.1211 29.8007 41.913L31.113 40.6007C31.3211 40.3927 31.4 40.0942 31.4 39.8C31.4 38.4745 32.4745 37.4 33.8 37.4C34.0942 37.4 34.3927 37.3211 34.6007 37.113L35.9126 35.8007C36.1206 35.5927 36.2 35.2942 36.2 35C36.2 34.975 36.2004 34.9501 36.2011 34.9253C36.2116 34.5827 36.1318 34.2292 35.8894 33.9868L34.8127 32.91C34.5703 32.6677 34.217 32.5883 33.8744 32.5989C33.8497 32.5996 33.8249 32.6 33.8 32.6C32.4745 32.6 31.4 31.5255 31.4 30.2C31.4 30.175 31.4004 30.1501 31.4011 30.1253C31.4116 29.7827 31.3318 29.4292 31.0894 29.1868L30.0127 28.11C29.7703 27.8677 29.417 27.7883 29.0744 27.7989C29.0497 27.7996 29.0249 27.8 29 27.8C27.6745 27.8 26.6 26.7255 26.6 25.4C26.6 24.0745 27.6745 23 29 23Z" fill="#F3F3E0"/>
<path d="M24.2 27.8C25.5255 27.8 26.6 28.8745 26.6 30.2C26.6 30.2249 26.5996 30.2497 26.5988 30.2744C26.5881 30.617 26.6672 30.9704 26.9096 31.2127L27.9867 32.2899C28.2291 32.5323 28.5826 32.6117 28.9253 32.6012C28.9501 32.6004 28.975 32.6 29 32.6C30.3255 32.6 31.4 33.6745 31.4 35C31.4 36.3255 30.3255 37.4 29 37.4C28.9379 37.4 28.8764 37.3976 28.8155 37.3929C28.4518 37.3647 28.0705 37.437 27.8125 37.695L26.895 38.6125C26.637 38.8705 26.5647 39.2518 26.5929 39.6155C26.5976 39.6764 26.6 39.7379 26.6 39.8C26.6 41.1255 25.5255 42.2 24.2 42.2C22.8745 42.2 21.8 41.1255 21.8 39.8C21.8 38.4745 22.8745 37.4 24.2 37.4C24.4942 37.4 24.7927 37.3211 25.0007 37.113L26.3126 35.8007C26.5206 35.5927 26.6 35.2942 26.6 35C26.6 34.975 26.6004 34.9501 26.6011 34.9253C26.6116 34.5827 26.5318 34.2292 26.2894 33.9868L25.2127 32.91C24.9703 32.6677 24.617 32.5883 24.2744 32.5989C24.2497 32.5996 24.2249 32.6 24.2 32.6C22.8745 32.6 21.8 31.5255 21.8 30.2C21.8 28.8745 22.8745 27.8 24.2 27.8Z" fill="#F3F3E0"/>
<path d="M19.4 32.6C20.7255 32.6 21.8 33.6745 21.8 35C21.8 36.3255 20.7255 37.4 19.4 37.4C18.0745 37.4 17 36.3255 17 35C17 33.6745 18.0745 32.6 19.4 32.6Z" fill="#F3F3E0"/>
</g>
<path d="M29 23.25C30.1874 23.25 31.1504 24.213 31.1504 25.4004C31.1504 25.4225 31.1501 25.4448 31.1494 25.4668C31.1376 25.8449 31.2226 26.2793 31.5332 26.5898L32.6104 27.667C32.9209 27.9772 33.3552 28.0625 33.7334 28.0508C33.7554 28.0501 33.7776 28.0498 33.7998 28.0498C34.9872 28.0498 35.9502 29.0128 35.9502 30.2002C35.9502 30.2224 35.9499 30.2446 35.9492 30.2666C35.9374 30.6448 36.0224 31.079 36.333 31.3896L37.4102 32.4668C37.7207 32.7772 38.1549 32.8623 38.5332 32.8506C38.5552 32.8499 38.5774 32.8496 38.5996 32.8496C39.787 32.8496 40.75 33.8126 40.75 35C40.75 36.1874 39.787 37.1504 38.5996 37.1504C38.5441 37.1504 38.4889 37.1478 38.4346 37.1436C38.0342 37.1126 37.5658 37.188 37.2354 37.5186L36.3184 38.4355C35.988 38.766 35.9126 39.2344 35.9434 39.6348C35.9475 39.6892 35.9502 39.7442 35.9502 39.7998C35.9502 40.9872 34.9872 41.9502 33.7998 41.9502C33.7443 41.9502 33.6892 41.9476 33.6348 41.9434C33.2344 41.9124 32.7661 41.9878 32.4355 42.3184L31.5186 43.2354C31.1881 43.5659 31.1126 44.0342 31.1436 44.4346C31.1478 44.4889 31.1504 44.5441 31.1504 44.5996C31.1504 45.787 30.1874 46.75 29 46.75C27.8126 46.75 26.8496 45.787 26.8496 44.5996C26.8498 43.4124 27.8127 42.4502 29 42.4502C29.3326 42.4502 29.706 42.3614 29.9775 42.0898L31.29 40.7773C31.5614 40.5058 31.6504 40.1323 31.6504 39.7998C31.6505 38.6125 32.6125 37.6505 33.7998 37.6504C34.1323 37.6504 34.5058 37.5615 34.7773 37.29L36.0898 35.9775C36.361 35.7061 36.4502 35.3328 36.4502 35C36.4502 34.9776 36.4505 34.9549 36.4512 34.9326C36.4626 34.5543 36.3768 34.1199 36.0664 33.8096L34.9893 32.7334C34.6788 32.4229 34.2444 32.337 33.8662 32.3486C33.8442 32.3493 33.822 32.3496 33.7998 32.3496C32.6125 32.3495 31.6505 31.3875 31.6504 30.2002C31.6504 30.1777 31.6507 30.1551 31.6514 30.1328C31.6629 29.7544 31.5769 29.3202 31.2666 29.0098L30.1895 27.9336C29.8789 27.6231 29.4447 27.5372 29.0664 27.5488C29.0444 27.5495 29.0222 27.5498 29 27.5498C27.8127 27.5498 26.8498 26.5876 26.8496 25.4004C26.8496 24.213 27.8126 23.25 29 23.25ZM24.2002 28.0498C25.3875 28.0499 26.3496 29.0128 26.3496 30.2002C26.3496 30.2224 26.3493 30.2446 26.3486 30.2666C26.3368 30.6447 26.4219 31.0791 26.7324 31.3896L27.8096 32.4668C28.12 32.7772 28.5543 32.8622 28.9326 32.8506C28.9549 32.8499 28.9776 32.8496 29 32.8496C30.1874 32.8496 31.1504 33.8126 31.1504 35C31.1504 36.1874 30.1874 37.1504 29 37.1504C28.9444 37.1504 28.8894 37.1478 28.835 37.1436C28.4346 37.1125 27.9663 37.188 27.6357 37.5186L26.7178 38.4355C26.3873 38.7661 26.3127 39.2344 26.3438 39.6348C26.348 39.6892 26.3496 39.7443 26.3496 39.7998C26.3496 40.9872 25.3875 41.9501 24.2002 41.9502C23.0128 41.9502 22.0498 40.9872 22.0498 39.7998C22.0499 38.6125 23.0128 37.6504 24.2002 37.6504C24.5327 37.6504 24.9063 37.5616 25.1777 37.29L26.4893 35.9775C26.7606 35.7061 26.8496 35.3329 26.8496 35C26.8496 34.9775 26.8499 34.9549 26.8506 34.9326C26.862 34.5543 26.7762 34.1199 26.4658 33.8096L25.3896 32.7334C25.0791 32.4229 24.6449 32.337 24.2666 32.3486C24.2446 32.3493 24.2224 32.3496 24.2002 32.3496C23.0128 32.3496 22.0499 31.3875 22.0498 30.2002C22.0498 29.0128 23.0128 28.0498 24.2002 28.0498ZM19.4004 32.8496C20.5876 32.8498 21.5498 33.8127 21.5498 35C21.5498 36.1873 20.5876 37.1502 19.4004 37.1504C18.213 37.1504 17.25 36.1874 17.25 35C17.25 33.8126 18.213 32.8496 19.4004 32.8496Z" stroke="#98A499" stroke-width="0.5"/>
<mask id="path-4-outside-1_53_1287" maskUnits="userSpaceOnUse" x="62" y="21.9639" width="86" height="27" fill="black">
<rect fill="white" x="62" y="21.9639" width="86" height="27"/>
<path d="M72.984 43.4599L71.616 43.4359C71.424 43.4359 71.232 43.4359 71.04 43.4359L66.672 43.6519C66.432 43.6519 66.312 43.5719 66.312 43.4119C66.312 43.3639 66.336 43.2519 66.384 43.0759C66.544 42.7079 66.656 41.5399 66.72 39.5719C66.8 37.6039 66.84 35.8119 66.84 34.1959C66.84 32.5639 66.808 31.2439 66.744 30.2359C66.648 28.7159 66.488 27.8039 66.264 27.4999C66.088 27.2759 66 27.1319 66 27.0679C66 26.8119 66.432 26.5879 67.296 26.3959C68.16 26.2039 68.776 26.1079 69.144 26.1079C69.528 26.1079 69.768 26.1319 69.864 26.1799C69.96 26.2119 70.008 26.2919 70.008 26.4199C70.008 26.5479 69.976 26.9559 69.912 27.6439C69.752 29.6759 69.672 32.0439 69.672 34.7479C69.672 37.4359 69.736 39.5879 69.864 41.2039C69.864 41.3799 70.016 41.5319 70.32 41.6599C70.624 41.7879 71 41.8519 71.448 41.8519C73.016 41.8519 73.8 40.6439 73.8 38.2279C73.8 37.5559 73.76 37.1399 73.68 36.9799C73.616 36.8199 73.584 36.7159 73.584 36.6679C73.584 36.5079 73.696 36.4279 73.92 36.4279C74.096 36.4279 74.328 36.5159 74.616 36.6919C74.92 36.8679 75.168 37.0919 75.36 37.3639C75.552 37.6199 75.728 38.0359 75.888 38.6119C76.048 39.1719 76.128 39.8359 76.128 40.6039C76.128 42.5079 75.896 43.4599 75.432 43.4599C74.616 43.4599 73.8 43.4599 72.984 43.4599Z"/>
<path d="M87.4389 40.5079C87.4389 41.6279 87.0789 42.4599 86.3589 43.0039C85.6549 43.5479 84.6629 43.8199 83.3829 43.8199C81.3349 43.8199 79.8229 43.1399 78.8469 41.7799C77.8869 40.4199 77.4069 38.6439 77.4069 36.4519C77.4069 36.0999 77.4229 35.5879 77.4549 34.9159H76.1109C75.9829 34.9159 75.9189 34.8679 75.9189 34.7719C75.9189 34.4999 76.0549 34.1719 76.3269 33.7879C76.5989 33.4039 76.8949 33.2119 77.2149 33.2119H77.6709C77.8789 32.0599 78.2149 31.0439 78.6789 30.1639C79.1589 29.2839 79.6549 28.6039 80.1669 28.1239C80.6949 27.6439 81.2709 27.2599 81.8949 26.9719C82.8869 26.4919 83.9269 26.2519 85.0149 26.2519C86.1029 26.2519 86.7829 26.4279 87.0549 26.7799C87.1829 26.9559 87.2469 27.2839 87.2469 27.7639C87.2469 28.2279 87.1909 28.4599 87.0789 28.4599C87.0629 28.4599 86.9909 28.4279 86.8629 28.3639C86.4469 28.1719 85.9269 28.0759 85.3029 28.0759C83.9429 28.0759 82.8789 28.5559 82.1109 29.5159C81.3589 30.4759 80.8549 31.7079 80.5989 33.2119C81.8149 33.1959 83.4629 33.1879 85.5429 33.1879C85.7029 33.1879 85.7829 33.2439 85.7829 33.3559C85.7829 33.6119 85.6549 33.9399 85.3989 34.3399C85.1429 34.7239 84.8549 34.9159 84.5349 34.9159H80.4069C80.3909 35.1079 80.3829 35.5319 80.3829 36.1879C80.3829 36.8279 80.4949 37.5079 80.7189 38.2279C80.9589 38.9319 81.3909 39.5319 82.0149 40.0279C82.6549 40.5239 83.4789 40.7719 84.4869 40.7719C85.4949 40.7719 86.3429 40.5479 87.0309 40.0999C87.1109 40.0359 87.1829 40.0039 87.2469 40.0039C87.3749 40.0039 87.4389 40.1719 87.4389 40.5079Z"/>
<path d="M94.5375 28.0759C93.9615 28.0759 93.4815 28.2839 93.0975 28.6999C92.4255 29.4359 92.0895 30.3719 92.0895 31.5079C92.0895 32.6279 92.3775 33.2999 92.9535 33.5239C93.0975 33.5719 93.1695 33.6759 93.1695 33.8359C93.1695 34.3159 93.0095 34.7239 92.6895 35.0599C92.3695 35.3799 91.9775 35.5719 91.5135 35.6359C91.3695 35.6359 91.2975 35.6919 91.2975 35.8039C91.2815 35.9799 91.2735 36.2359 91.2735 36.5719C91.2735 36.8919 91.2895 37.2519 91.3215 37.6519C91.3535 38.0359 91.4255 38.4999 91.5375 39.0439C91.6655 39.5719 91.8255 40.0359 92.0175 40.4359C92.2255 40.8199 92.5135 41.1559 92.8815 41.4439C93.2655 41.7159 93.7535 41.8519 94.3455 41.8519C94.9535 41.8519 95.4975 41.6119 95.9775 41.1319C96.4575 40.6519 96.7935 40.0279 96.9855 39.2599C97.3375 37.9159 97.5135 36.6279 97.5135 35.3959C97.5135 34.1479 97.4335 33.0519 97.2735 32.1079C97.1135 31.1639 96.9215 30.4439 96.6975 29.9479C96.4895 29.4519 96.2335 29.0519 95.9295 28.7479C95.6255 28.4439 95.3695 28.2599 95.1615 28.1959C94.9535 28.1159 94.7455 28.0759 94.5375 28.0759ZM90.1695 30.4519L90.2655 30.3079C90.4255 29.5719 90.6815 28.9399 91.0335 28.4119C91.4015 27.8679 91.7615 27.4679 92.1135 27.2119C92.4815 26.9399 92.8895 26.7319 93.3375 26.5879C93.9295 26.3959 94.4495 26.2999 94.8975 26.2999C95.9695 26.2999 96.8895 26.5479 97.6575 27.0439C98.4415 27.5399 99.0335 28.2119 99.4335 29.0599C100.17 30.6759 100.538 32.5079 100.538 34.5559C100.538 37.9959 99.7375 40.4999 98.1375 42.0679C97.3535 42.8359 96.4895 43.3559 95.5455 43.6279C94.9535 43.8039 94.3855 43.8919 93.8415 43.8919C91.8415 43.8919 90.3695 43.2119 89.4255 41.8519C88.4815 40.4759 88.0095 38.7399 88.0095 36.6439C88.0095 35.4279 88.1135 34.3159 88.3215 33.3079C88.5295 32.2839 88.7455 31.5639 88.9695 31.1479L89.2815 30.5239C89.3455 30.3799 89.4495 30.3079 89.5935 30.3079C89.7375 30.3079 89.8415 30.3239 89.9055 30.3559C89.9855 30.3719 90.0415 30.3959 90.0735 30.4279C90.1215 30.4439 90.1535 30.4519 90.1695 30.4519Z"/>
<path d="M102.302 34.1479L102.182 29.6119C102.182 28.8919 102.102 28.3239 101.942 27.9079C101.782 27.4919 101.702 27.2679 101.702 27.2359C101.702 26.8839 102.238 26.6119 103.31 26.4199C104.398 26.2279 105.222 26.1319 105.782 26.1319C106.358 26.1319 106.67 26.2679 106.718 26.5399C107.726 31.0359 108.574 34.1559 109.262 35.8999C109.342 36.0919 109.422 36.1879 109.502 36.1879C109.598 36.1879 109.678 36.1159 109.742 35.9719C110.814 32.9479 111.758 29.9559 112.574 26.9959C112.638 26.8039 112.798 26.6599 113.054 26.5639C113.31 26.4519 113.75 26.3479 114.374 26.2519C115.014 26.1559 115.646 26.1079 116.27 26.1079C116.894 26.1079 117.206 26.2359 117.206 26.4919C117.206 26.5079 117.182 26.6359 117.134 26.8759C117.086 27.0999 117.038 27.3799 116.99 27.7159C116.942 28.0519 116.886 28.4599 116.822 28.9399C116.678 30.0439 116.582 31.3159 116.534 32.7559C116.502 34.1799 116.486 35.6119 116.486 37.0519L116.534 39.5719C116.534 40.7239 116.606 41.5479 116.75 42.0439C116.91 42.5239 116.99 42.8039 116.99 42.8839C116.99 42.9479 116.934 43.0279 116.822 43.1239C116.326 43.5239 115.574 43.7239 114.566 43.7239C113.926 43.7239 113.566 43.5079 113.486 43.0759C113.438 42.8519 113.414 42.4999 113.414 42.0199C113.414 41.5239 113.462 40.0199 113.558 37.5079C113.654 34.9959 113.702 33.1719 113.702 32.0359C113.702 30.8839 113.638 30.3079 113.51 30.3079C113.494 30.3079 113.486 30.3159 113.486 30.3319C113.486 30.3319 113.462 30.3399 113.414 30.3559C113.366 30.3719 113.238 30.6199 113.03 31.0999C112.838 31.5799 112.446 32.7639 111.854 34.6519C111.262 36.5399 110.726 38.3079 110.246 39.9559C109.766 41.5879 109.502 42.4679 109.454 42.5959C109.278 43.0279 108.942 43.2439 108.446 43.2439C108.206 43.2439 108.014 43.1559 107.87 42.9799C107.358 40.6119 106.446 37.2279 105.134 32.8279L104.462 30.6439C104.43 30.5639 104.398 30.5239 104.366 30.5239C104.286 30.5239 104.23 30.5799 104.198 30.6919C104.134 31.7319 104.102 33.7799 104.102 36.8359C104.102 39.8759 104.214 41.7959 104.438 42.5959C104.454 42.6279 104.462 42.6759 104.462 42.7399C104.462 43.0759 104.198 43.3239 103.67 43.4839C103.142 43.6279 102.662 43.6999 102.23 43.6999C101.814 43.6999 101.606 43.6039 101.606 43.4119C101.606 43.3959 101.646 43.2679 101.726 43.0279C101.966 42.2119 102.118 41.0279 102.182 39.4759C102.262 37.9239 102.302 36.1479 102.302 34.1479Z"/>
<path d="M124.654 29.7319C123.39 31.3159 122.478 32.8999 121.918 34.4839H121.942C124.166 34.4839 125.438 34.4919 125.758 34.5079C126.094 34.5079 126.278 34.4919 126.31 34.4599C126.342 34.4279 126.366 34.3879 126.382 34.3399C126.11 32.3719 125.894 31.0359 125.734 30.3319C125.574 29.6119 125.414 29.2519 125.254 29.2519C125.094 29.2519 124.894 29.4119 124.654 29.7319ZM122.518 41.0359L123.046 40.9399C123.206 40.9399 123.286 41.0279 123.286 41.2039C123.286 41.7639 123.174 42.2359 122.95 42.6199C122.726 43.0039 122.446 43.2759 122.11 43.4359C121.566 43.7079 121.102 43.8439 120.718 43.8439C119.982 43.8439 119.43 43.5719 119.062 43.0279C118.694 42.4679 118.51 41.6359 118.51 40.5319C118.51 39.4119 118.814 37.9639 119.422 36.1879H118.03C117.854 36.1879 117.766 36.0999 117.766 35.9239C117.766 35.7479 117.902 35.4679 118.174 35.0839C118.446 34.6839 118.734 34.4839 119.038 34.4839H120.118C121.254 31.9559 122.59 29.7719 124.126 27.9319C124.526 27.4519 125.014 27.0039 125.59 26.5879C126.182 26.1719 126.638 25.9639 126.958 25.9639C127.278 25.9639 127.518 26.1079 127.678 26.3959C128.094 27.0679 128.582 29.5239 129.142 33.7639C129.334 35.5879 129.662 37.4759 130.126 39.4279C130.606 41.3639 131.046 42.4919 131.446 42.8119C131.542 42.8759 131.59 42.9559 131.59 43.0519C131.59 43.2919 131.246 43.5159 130.558 43.7239C129.886 43.9319 129.366 44.0359 128.998 44.0359C128.646 44.0359 128.374 43.9879 128.182 43.8919C127.99 43.8119 127.87 43.7239 127.822 43.6279C127.534 43.0039 127.246 41.5159 126.958 39.1639L126.814 38.0359C126.75 37.2839 126.686 36.7159 126.622 36.3319L126.454 36.2119L121.438 36.1879C121.246 37.0039 121.15 37.7159 121.15 38.3239C121.15 38.9319 121.166 39.3799 121.198 39.6679C121.246 39.9399 121.382 40.2359 121.606 40.5559C121.83 40.8759 122.134 41.0359 122.518 41.0359Z"/>
<path d="M139.803 30.1879L139.899 29.4439C139.899 28.7079 139.611 28.2359 139.035 28.0279C138.587 27.8839 138.243 27.8119 138.003 27.8119H137.979C137.499 27.8119 137.083 27.8919 136.731 28.0519C136.379 28.1959 136.123 28.3799 135.963 28.6039C135.627 29.0679 135.435 29.5559 135.387 30.0679C135.387 30.6759 135.659 31.2039 136.203 31.6519C136.747 32.0839 137.403 32.4679 138.171 32.8039C138.955 33.1239 139.731 33.4759 140.499 33.8599C141.283 34.2439 141.947 34.7959 142.491 35.5159C143.035 36.2359 143.307 37.0999 143.307 38.1079C143.307 40.0759 142.683 41.5479 141.435 42.5239C140.203 43.4999 138.795 43.9879 137.211 43.9879C135.643 43.9879 134.339 43.6359 133.299 42.9319C132.275 42.2119 131.763 41.2519 131.763 40.0519V40.0279C131.763 39.4359 131.851 38.9239 132.027 38.4919C132.219 38.0439 132.443 37.7159 132.699 37.5079C133.227 37.0759 133.707 36.8439 134.139 36.8119L134.427 36.7879C134.875 36.7879 135.283 36.8999 135.651 37.1239C136.019 37.3319 136.203 37.6279 136.203 38.0119C136.203 38.2039 136.099 38.3639 135.891 38.4919C135.683 38.6199 135.499 38.8119 135.339 39.0679C135.195 39.3239 135.115 39.5399 135.099 39.7159L135.051 39.9799C135.051 40.9559 135.499 41.6039 136.395 41.9239C136.715 42.0359 136.971 42.0919 137.163 42.0919C138.043 42.0919 138.747 41.8279 139.275 41.2999C139.819 40.7719 140.091 40.0999 140.091 39.2839C140.091 38.3079 139.675 37.5159 138.843 36.9079C138.219 36.4599 137.539 36.0839 136.803 35.7799C136.083 35.4759 135.595 35.2599 135.339 35.1319C135.083 35.0039 134.811 34.8519 134.523 34.6759C134.235 34.4999 133.915 34.2519 133.563 33.9319C132.795 33.2599 132.411 32.3559 132.411 31.2199C132.411 30.0679 132.723 29.0999 133.347 28.3159C134.467 26.8919 136.147 26.1799 138.387 26.1799C139.571 26.1799 140.571 26.4119 141.387 26.8759C142.203 27.3239 142.611 27.9479 142.611 28.7479C142.611 29.3239 142.443 29.8039 142.107 30.1879C141.787 30.5719 141.371 30.7639 140.859 30.7639C140.619 30.7639 140.379 30.7159 140.139 30.6199C139.915 30.5239 139.803 30.3799 139.803 30.1879Z"/>
</mask>
<path d="M72.984 43.4599L71.616 43.4359C71.424 43.4359 71.232 43.4359 71.04 43.4359L66.672 43.6519C66.432 43.6519 66.312 43.5719 66.312 43.4119C66.312 43.3639 66.336 43.2519 66.384 43.0759C66.544 42.7079 66.656 41.5399 66.72 39.5719C66.8 37.6039 66.84 35.8119 66.84 34.1959C66.84 32.5639 66.808 31.2439 66.744 30.2359C66.648 28.7159 66.488 27.8039 66.264 27.4999C66.088 27.2759 66 27.1319 66 27.0679C66 26.8119 66.432 26.5879 67.296 26.3959C68.16 26.2039 68.776 26.1079 69.144 26.1079C69.528 26.1079 69.768 26.1319 69.864 26.1799C69.96 26.2119 70.008 26.2919 70.008 26.4199C70.008 26.5479 69.976 26.9559 69.912 27.6439C69.752 29.6759 69.672 32.0439 69.672 34.7479C69.672 37.4359 69.736 39.5879 69.864 41.2039C69.864 41.3799 70.016 41.5319 70.32 41.6599C70.624 41.7879 71 41.8519 71.448 41.8519C73.016 41.8519 73.8 40.6439 73.8 38.2279C73.8 37.5559 73.76 37.1399 73.68 36.9799C73.616 36.8199 73.584 36.7159 73.584 36.6679C73.584 36.5079 73.696 36.4279 73.92 36.4279C74.096 36.4279 74.328 36.5159 74.616 36.6919C74.92 36.8679 75.168 37.0919 75.36 37.3639C75.552 37.6199 75.728 38.0359 75.888 38.6119C76.048 39.1719 76.128 39.8359 76.128 40.6039C76.128 42.5079 75.896 43.4599 75.432 43.4599C74.616 43.4599 73.8 43.4599 72.984 43.4599Z" fill="#F3F3E0"/>
<path d="M87.4389 40.5079C87.4389 41.6279 87.0789 42.4599 86.3589 43.0039C85.6549 43.5479 84.6629 43.8199 83.3829 43.8199C81.3349 43.8199 79.8229 43.1399 78.8469 41.7799C77.8869 40.4199 77.4069 38.6439 77.4069 36.4519C77.4069 36.0999 77.4229 35.5879 77.4549 34.9159H76.1109C75.9829 34.9159 75.9189 34.8679 75.9189 34.7719C75.9189 34.4999 76.0549 34.1719 76.3269 33.7879C76.5989 33.4039 76.8949 33.2119 77.2149 33.2119H77.6709C77.8789 32.0599 78.2149 31.0439 78.6789 30.1639C79.1589 29.2839 79.6549 28.6039 80.1669 28.1239C80.6949 27.6439 81.2709 27.2599 81.8949 26.9719C82.8869 26.4919 83.9269 26.2519 85.0149 26.2519C86.1029 26.2519 86.7829 26.4279 87.0549 26.7799C87.1829 26.9559 87.2469 27.2839 87.2469 27.7639C87.2469 28.2279 87.1909 28.4599 87.0789 28.4599C87.0629 28.4599 86.9909 28.4279 86.8629 28.3639C86.4469 28.1719 85.9269 28.0759 85.3029 28.0759C83.9429 28.0759 82.8789 28.5559 82.1109 29.5159C81.3589 30.4759 80.8549 31.7079 80.5989 33.2119C81.8149 33.1959 83.4629 33.1879 85.5429 33.1879C85.7029 33.1879 85.7829 33.2439 85.7829 33.3559C85.7829 33.6119 85.6549 33.9399 85.3989 34.3399C85.1429 34.7239 84.8549 34.9159 84.5349 34.9159H80.4069C80.3909 35.1079 80.3829 35.5319 80.3829 36.1879C80.3829 36.8279 80.4949 37.5079 80.7189 38.2279C80.9589 38.9319 81.3909 39.5319 82.0149 40.0279C82.6549 40.5239 83.4789 40.7719 84.4869 40.7719C85.4949 40.7719 86.3429 40.5479 87.0309 40.0999C87.1109 40.0359 87.1829 40.0039 87.2469 40.0039C87.3749 40.0039 87.4389 40.1719 87.4389 40.5079Z" fill="#F3F3E0"/>
<path d="M94.5375 28.0759C93.9615 28.0759 93.4815 28.2839 93.0975 28.6999C92.4255 29.4359 92.0895 30.3719 92.0895 31.5079C92.0895 32.6279 92.3775 33.2999 92.9535 33.5239C93.0975 33.5719 93.1695 33.6759 93.1695 33.8359C93.1695 34.3159 93.0095 34.7239 92.6895 35.0599C92.3695 35.3799 91.9775 35.5719 91.5135 35.6359C91.3695 35.6359 91.2975 35.6919 91.2975 35.8039C91.2815 35.9799 91.2735 36.2359 91.2735 36.5719C91.2735 36.8919 91.2895 37.2519 91.3215 37.6519C91.3535 38.0359 91.4255 38.4999 91.5375 39.0439C91.6655 39.5719 91.8255 40.0359 92.0175 40.4359C92.2255 40.8199 92.5135 41.1559 92.8815 41.4439C93.2655 41.7159 93.7535 41.8519 94.3455 41.8519C94.9535 41.8519 95.4975 41.6119 95.9775 41.1319C96.4575 40.6519 96.7935 40.0279 96.9855 39.2599C97.3375 37.9159 97.5135 36.6279 97.5135 35.3959C97.5135 34.1479 97.4335 33.0519 97.2735 32.1079C97.1135 31.1639 96.9215 30.4439 96.6975 29.9479C96.4895 29.4519 96.2335 29.0519 95.9295 28.7479C95.6255 28.4439 95.3695 28.2599 95.1615 28.1959C94.9535 28.1159 94.7455 28.0759 94.5375 28.0759ZM90.1695 30.4519L90.2655 30.3079C90.4255 29.5719 90.6815 28.9399 91.0335 28.4119C91.4015 27.8679 91.7615 27.4679 92.1135 27.2119C92.4815 26.9399 92.8895 26.7319 93.3375 26.5879C93.9295 26.3959 94.4495 26.2999 94.8975 26.2999C95.9695 26.2999 96.8895 26.5479 97.6575 27.0439C98.4415 27.5399 99.0335 28.2119 99.4335 29.0599C100.17 30.6759 100.538 32.5079 100.538 34.5559C100.538 37.9959 99.7375 40.4999 98.1375 42.0679C97.3535 42.8359 96.4895 43.3559 95.5455 43.6279C94.9535 43.8039 94.3855 43.8919 93.8415 43.8919C91.8415 43.8919 90.3695 43.2119 89.4255 41.8519C88.4815 40.4759 88.0095 38.7399 88.0095 36.6439C88.0095 35.4279 88.1135 34.3159 88.3215 33.3079C88.5295 32.2839 88.7455 31.5639 88.9695 31.1479L89.2815 30.5239C89.3455 30.3799 89.4495 30.3079 89.5935 30.3079C89.7375 30.3079 89.8415 30.3239 89.9055 30.3559C89.9855 30.3719 90.0415 30.3959 90.0735 30.4279C90.1215 30.4439 90.1535 30.4519 90.1695 30.4519Z" fill="#F3F3E0"/>
<path d="M102.302 34.1479L102.182 29.6119C102.182 28.8919 102.102 28.3239 101.942 27.9079C101.782 27.4919 101.702 27.2679 101.702 27.2359C101.702 26.8839 102.238 26.6119 103.31 26.4199C104.398 26.2279 105.222 26.1319 105.782 26.1319C106.358 26.1319 106.67 26.2679 106.718 26.5399C107.726 31.0359 108.574 34.1559 109.262 35.8999C109.342 36.0919 109.422 36.1879 109.502 36.1879C109.598 36.1879 109.678 36.1159 109.742 35.9719C110.814 32.9479 111.758 29.9559 112.574 26.9959C112.638 26.8039 112.798 26.6599 113.054 26.5639C113.31 26.4519 113.75 26.3479 114.374 26.2519C115.014 26.1559 115.646 26.1079 116.27 26.1079C116.894 26.1079 117.206 26.2359 117.206 26.4919C117.206 26.5079 117.182 26.6359 117.134 26.8759C117.086 27.0999 117.038 27.3799 116.99 27.7159C116.942 28.0519 116.886 28.4599 116.822 28.9399C116.678 30.0439 116.582 31.3159 116.534 32.7559C116.502 34.1799 116.486 35.6119 116.486 37.0519L116.534 39.5719C116.534 40.7239 116.606 41.5479 116.75 42.0439C116.91 42.5239 116.99 42.8039 116.99 42.8839C116.99 42.9479 116.934 43.0279 116.822 43.1239C116.326 43.5239 115.574 43.7239 114.566 43.7239C113.926 43.7239 113.566 43.5079 113.486 43.0759C113.438 42.8519 113.414 42.4999 113.414 42.0199C113.414 41.5239 113.462 40.0199 113.558 37.5079C113.654 34.9959 113.702 33.1719 113.702 32.0359C113.702 30.8839 113.638 30.3079 113.51 30.3079C113.494 30.3079 113.486 30.3159 113.486 30.3319C113.486 30.3319 113.462 30.3399 113.414 30.3559C113.366 30.3719 113.238 30.6199 113.03 31.0999C112.838 31.5799 112.446 32.7639 111.854 34.6519C111.262 36.5399 110.726 38.3079 110.246 39.9559C109.766 41.5879 109.502 42.4679 109.454 42.5959C109.278 43.0279 108.942 43.2439 108.446 43.2439C108.206 43.2439 108.014 43.1559 107.87 42.9799C107.358 40.6119 106.446 37.2279 105.134 32.8279L104.462 30.6439C104.43 30.5639 104.398 30.5239 104.366 30.5239C104.286 30.5239 104.23 30.5799 104.198 30.6919C104.134 31.7319 104.102 33.7799 104.102 36.8359C104.102 39.8759 104.214 41.7959 104.438 42.5959C104.454 42.6279 104.462 42.6759 104.462 42.7399C104.462 43.0759 104.198 43.3239 103.67 43.4839C103.142 43.6279 102.662 43.6999 102.23 43.6999C101.814 43.6999 101.606 43.6039 101.606 43.4119C101.606 43.3959 101.646 43.2679 101.726 43.0279C101.966 42.2119 102.118 41.0279 102.182 39.4759C102.262 37.9239 102.302 36.1479 102.302 34.1479Z" fill="#F3F3E0"/>
<path d="M124.654 29.7319C123.39 31.3159 122.478 32.8999 121.918 34.4839H121.942C124.166 34.4839 125.438 34.4919 125.758 34.5079C126.094 34.5079 126.278 34.4919 126.31 34.4599C126.342 34.4279 126.366 34.3879 126.382 34.3399C126.11 32.3719 125.894 31.0359 125.734 30.3319C125.574 29.6119 125.414 29.2519 125.254 29.2519C125.094 29.2519 124.894 29.4119 124.654 29.7319ZM122.518 41.0359L123.046 40.9399C123.206 40.9399 123.286 41.0279 123.286 41.2039C123.286 41.7639 123.174 42.2359 122.95 42.6199C122.726 43.0039 122.446 43.2759 122.11 43.4359C121.566 43.7079 121.102 43.8439 120.718 43.8439C119.982 43.8439 119.43 43.5719 119.062 43.0279C118.694 42.4679 118.51 41.6359 118.51 40.5319C118.51 39.4119 118.814 37.9639 119.422 36.1879H118.03C117.854 36.1879 117.766 36.0999 117.766 35.9239C117.766 35.7479 117.902 35.4679 118.174 35.0839C118.446 34.6839 118.734 34.4839 119.038 34.4839H120.118C121.254 31.9559 122.59 29.7719 124.126 27.9319C124.526 27.4519 125.014 27.0039 125.59 26.5879C126.182 26.1719 126.638 25.9639 126.958 25.9639C127.278 25.9639 127.518 26.1079 127.678 26.3959C128.094 27.0679 128.582 29.5239 129.142 33.7639C129.334 35.5879 129.662 37.4759 130.126 39.4279C130.606 41.3639 131.046 42.4919 131.446 42.8119C131.542 42.8759 131.59 42.9559 131.59 43.0519C131.59 43.2919 131.246 43.5159 130.558 43.7239C129.886 43.9319 129.366 44.0359 128.998 44.0359C128.646 44.0359 128.374 43.9879 128.182 43.8919C127.99 43.8119 127.87 43.7239 127.822 43.6279C127.534 43.0039 127.246 41.5159 126.958 39.1639L126.814 38.0359C126.75 37.2839 126.686 36.7159 126.622 36.3319L126.454 36.2119L121.438 36.1879C121.246 37.0039 121.15 37.7159 121.15 38.3239C121.15 38.9319 121.166 39.3799 121.198 39.6679C121.246 39.9399 121.382 40.2359 121.606 40.5559C121.83 40.8759 122.134 41.0359 122.518 41.0359Z" fill="#F3F3E0"/>
<path d="M139.803 30.1879L139.899 29.4439C139.899 28.7079 139.611 28.2359 139.035 28.0279C138.587 27.8839 138.243 27.8119 138.003 27.8119H137.979C137.499 27.8119 137.083 27.8919 136.731 28.0519C136.379 28.1959 136.123 28.3799 135.963 28.6039C135.627 29.0679 135.435 29.5559 135.387 30.0679C135.387 30.6759 135.659 31.2039 136.203 31.6519C136.747 32.0839 137.403 32.4679 138.171 32.8039C138.955 33.1239 139.731 33.4759 140.499 33.8599C141.283 34.2439 141.947 34.7959 142.491 35.5159C143.035 36.2359 143.307 37.0999 143.307 38.1079C143.307 40.0759 142.683 41.5479 141.435 42.5239C140.203 43.4999 138.795 43.9879 137.211 43.9879C135.643 43.9879 134.339 43.6359 133.299 42.9319C132.275 42.2119 131.763 41.2519 131.763 40.0519V40.0279C131.763 39.4359 131.851 38.9239 132.027 38.4919C132.219 38.0439 132.443 37.7159 132.699 37.5079C133.227 37.0759 133.707 36.8439 134.139 36.8119L134.427 36.7879C134.875 36.7879 135.283 36.8999 135.651 37.1239C136.019 37.3319 136.203 37.6279 136.203 38.0119C136.203 38.2039 136.099 38.3639 135.891 38.4919C135.683 38.6199 135.499 38.8119 135.339 39.0679C135.195 39.3239 135.115 39.5399 135.099 39.7159L135.051 39.9799C135.051 40.9559 135.499 41.6039 136.395 41.9239C136.715 42.0359 136.971 42.0919 137.163 42.0919C138.043 42.0919 138.747 41.8279 139.275 41.2999C139.819 40.7719 140.091 40.0999 140.091 39.2839C140.091 38.3079 139.675 37.5159 138.843 36.9079C138.219 36.4599 137.539 36.0839 136.803 35.7799C136.083 35.4759 135.595 35.2599 135.339 35.1319C135.083 35.0039 134.811 34.8519 134.523 34.6759C134.235 34.4999 133.915 34.2519 133.563 33.9319C132.795 33.2599 132.411 32.3559 132.411 31.2199C132.411 30.0679 132.723 29.0999 133.347 28.3159C134.467 26.8919 136.147 26.1799 138.387 26.1799C139.571 26.1799 140.571 26.4119 141.387 26.8759C142.203 27.3239 142.611 27.9479 142.611 28.7479C142.611 29.3239 142.443 29.8039 142.107 30.1879C141.787 30.5719 141.371 30.7639 140.859 30.7639C140.619 30.7639 140.379 30.7159 140.139 30.6199C139.915 30.5239 139.803 30.3799 139.803 30.1879Z" fill="#F3F3E0"/>
<path d="M72.984 43.4599L71.616 43.4359C71.424 43.4359 71.232 43.4359 71.04 43.4359L66.672 43.6519C66.432 43.6519 66.312 43.5719 66.312 43.4119C66.312 43.3639 66.336 43.2519 66.384 43.0759C66.544 42.7079 66.656 41.5399 66.72 39.5719C66.8 37.6039 66.84 35.8119 66.84 34.1959C66.84 32.5639 66.808 31.2439 66.744 30.2359C66.648 28.7159 66.488 27.8039 66.264 27.4999C66.088 27.2759 66 27.1319 66 27.0679C66 26.8119 66.432 26.5879 67.296 26.3959C68.16 26.2039 68.776 26.1079 69.144 26.1079C69.528 26.1079 69.768 26.1319 69.864 26.1799C69.96 26.2119 70.008 26.2919 70.008 26.4199C70.008 26.5479 69.976 26.9559 69.912 27.6439C69.752 29.6759 69.672 32.0439 69.672 34.7479C69.672 37.4359 69.736 39.5879 69.864 41.2039C69.864 41.3799 70.016 41.5319 70.32 41.6599C70.624 41.7879 71 41.8519 71.448 41.8519C73.016 41.8519 73.8 40.6439 73.8 38.2279C73.8 37.5559 73.76 37.1399 73.68 36.9799C73.616 36.8199 73.584 36.7159 73.584 36.6679C73.584 36.5079 73.696 36.4279 73.92 36.4279C74.096 36.4279 74.328 36.5159 74.616 36.6919C74.92 36.8679 75.168 37.0919 75.36 37.3639C75.552 37.6199 75.728 38.0359 75.888 38.6119C76.048 39.1719 76.128 39.8359 76.128 40.6039C76.128 42.5079 75.896 43.4599 75.432 43.4599C74.616 43.4599 73.8 43.4599 72.984 43.4599Z" stroke="#324934" stroke-width="8" mask="url(#path-4-outside-1_53_1287)"/>
<path d="M87.4389 40.5079C87.4389 41.6279 87.0789 42.4599 86.3589 43.0039C85.6549 43.5479 84.6629 43.8199 83.3829 43.8199C81.3349 43.8199 79.8229 43.1399 78.8469 41.7799C77.8869 40.4199 77.4069 38.6439 77.4069 36.4519C77.4069 36.0999 77.4229 35.5879 77.4549 34.9159H76.1109C75.9829 34.9159 75.9189 34.8679 75.9189 34.7719C75.9189 34.4999 76.0549 34.1719 76.3269 33.7879C76.5989 33.4039 76.8949 33.2119 77.2149 33.2119H77.6709C77.8789 32.0599 78.2149 31.0439 78.6789 30.1639C79.1589 29.2839 79.6549 28.6039 80.1669 28.1239C80.6949 27.6439 81.2709 27.2599 81.8949 26.9719C82.8869 26.4919 83.9269 26.2519 85.0149 26.2519C86.1029 26.2519 86.7829 26.4279 87.0549 26.7799C87.1829 26.9559 87.2469 27.2839 87.2469 27.7639C87.2469 28.2279 87.1909 28.4599 87.0789 28.4599C87.0629 28.4599 86.9909 28.4279 86.8629 28.3639C86.4469 28.1719 85.9269 28.0759 85.3029 28.0759C83.9429 28.0759 82.8789 28.5559 82.1109 29.5159C81.3589 30.4759 80.8549 31.7079 80.5989 33.2119C81.8149 33.1959 83.4629 33.1879 85.5429 33.1879C85.7029 33.1879 85.7829 33.2439 85.7829 33.3559C85.7829 33.6119 85.6549 33.9399 85.3989 34.3399C85.1429 34.7239 84.8549 34.9159 84.5349 34.9159H80.4069C80.3909 35.1079 80.3829 35.5319 80.3829 36.1879C80.3829 36.8279 80.4949 37.5079 80.7189 38.2279C80.9589 38.9319 81.3909 39.5319 82.0149 40.0279C82.6549 40.5239 83.4789 40.7719 84.4869 40.7719C85.4949 40.7719 86.3429 40.5479 87.0309 40.0999C87.1109 40.0359 87.1829 40.0039 87.2469 40.0039C87.3749 40.0039 87.4389 40.1719 87.4389 40.5079Z" stroke="#324934" stroke-width="8" mask="url(#path-4-outside-1_53_1287)"/>
<path d="M94.5375 28.0759C93.9615 28.0759 93.4815 28.2839 93.0975 28.6999C92.4255 29.4359 92.0895 30.3719 92.0895 31.5079C92.0895 32.6279 92.3775 33.2999 92.9535 33.5239C93.0975 33.5719 93.1695 33.6759 93.1695 33.8359C93.1695 34.3159 93.0095 34.7239 92.6895 35.0599C92.3695 35.3799 91.9775 35.5719 91.5135 35.6359C91.3695 35.6359 91.2975 35.6919 91.2975 35.8039C91.2815 35.9799 91.2735 36.2359 91.2735 36.5719C91.2735 36.8919 91.2895 37.2519 91.3215 37.6519C91.3535 38.0359 91.4255 38.4999 91.5375 39.0439C91.6655 39.5719 91.8255 40.0359 92.0175 40.4359C92.2255 40.8199 92.5135 41.1559 92.8815 41.4439C93.2655 41.7159 93.7535 41.8519 94.3455 41.8519C94.9535 41.8519 95.4975 41.6119 95.9775 41.1319C96.4575 40.6519 96.7935 40.0279 96.9855 39.2599C97.3375 37.9159 97.5135 36.6279 97.5135 35.3959C97.5135 34.1479 97.4335 33.0519 97.2735 32.1079C97.1135 31.1639 96.9215 30.4439 96.6975 29.9479C96.4895 29.4519 96.2335 29.0519 95.9295 28.7479C95.6255 28.4439 95.3695 28.2599 95.1615 28.1959C94.9535 28.1159 94.7455 28.0759 94.5375 28.0759ZM90.1695 30.4519L90.2655 30.3079C90.4255 29.5719 90.6815 28.9399 91.0335 28.4119C91.4015 27.8679 91.7615 27.4679 92.1135 27.2119C92.4815 26.9399 92.8895 26.7319 93.3375 26.5879C93.9295 26.3959 94.4495 26.2999 94.8975 26.2999C95.9695 26.2999 96.8895 26.5479 97.6575 27.0439C98.4415 27.5399 99.0335 28.2119 99.4335 29.0599C100.17 30.6759 100.538 32.5079 100.538 34.5559C100.538 37.9959 99.7375 40.4999 98.1375 42.0679C97.3535 42.8359 96.4895 43.3559 95.5455 43.6279C94.9535 43.8039 94.3855 43.8919 93.8415 43.8919C91.8415 43.8919 90.3695 43.2119 89.4255 41.8519C88.4815 40.4759 88.0095 38.7399 88.0095 36.6439C88.0095 35.4279 88.1135 34.3159 88.3215 33.3079C88.5295 32.2839 88.7455 31.5639 88.9695 31.1479L89.2815 30.5239C89.3455 30.3799 89.4495 30.3079 89.5935 30.3079C89.7375 30.3079 89.8415 30.3239 89.9055 30.3559C89.9855 30.3719 90.0415 30.3959 90.0735 30.4279C90.1215 30.4439 90.1535 30.4519 90.1695 30.4519Z" stroke="#324934" stroke-width="8" mask="url(#path-4-outside-1_53_1287)"/>
<path d="M102.302 34.1479L102.182 29.6119C102.182 28.8919 102.102 28.3239 101.942 27.9079C101.782 27.4919 101.702 27.2679 101.702 27.2359C101.702 26.8839 102.238 26.6119 103.31 26.4199C104.398 26.2279 105.222 26.1319 105.782 26.1319C106.358 26.1319 106.67 26.2679 106.718 26.5399C107.726 31.0359 108.574 34.1559 109.262 35.8999C109.342 36.0919 109.422 36.1879 109.502 36.1879C109.598 36.1879 109.678 36.1159 109.742 35.9719C110.814 32.9479 111.758 29.9559 112.574 26.9959C112.638 26.8039 112.798 26.6599 113.054 26.5639C113.31 26.4519 113.75 26.3479 114.374 26.2519C115.014 26.1559 115.646 26.1079 116.27 26.1079C116.894 26.1079 117.206 26.2359 117.206 26.4919C117.206 26.5079 117.182 26.6359 117.134 26.8759C117.086 27.0999 117.038 27.3799 116.99 27.7159C116.942 28.0519 116.886 28.4599 116.822 28.9399C116.678 30.0439 116.582 31.3159 116.534 32.7559C116.502 34.1799 116.486 35.6119 116.486 37.0519L116.534 39.5719C116.534 40.7239 116.606 41.5479 116.75 42.0439C116.91 42.5239 116.99 42.8039 116.99 42.8839C116.99 42.9479 116.934 43.0279 116.822 43.1239C116.326 43.5239 115.574 43.7239 114.566 43.7239C113.926 43.7239 113.566 43.5079 113.486 43.0759C113.438 42.8519 113.414 42.4999 113.414 42.0199C113.414 41.5239 113.462 40.0199 113.558 37.5079C113.654 34.9959 113.702 33.1719 113.702 32.0359C113.702 30.8839 113.638 30.3079 113.51 30.3079C113.494 30.3079 113.486 30.3159 113.486 30.3319C113.486 30.3319 113.462 30.3399 113.414 30.3559C113.366 30.3719 113.238 30.6199 113.03 31.0999C112.838 31.5799 112.446 32.7639 111.854 34.6519C111.262 36.5399 110.726 38.3079 110.246 39.9559C109.766 41.5879 109.502 42.4679 109.454 42.5959C109.278 43.0279 108.942 43.2439 108.446 43.2439C108.206 43.2439 108.014 43.1559 107.87 42.9799C107.358 40.6119 106.446 37.2279 105.134 32.8279L104.462 30.6439C104.43 30.5639 104.398 30.5239 104.366 30.5239C104.286 30.5239 104.23 30.5799 104.198 30.6919C104.134 31.7319 104.102 33.7799 104.102 36.8359C104.102 39.8759 104.214 41.7959 104.438 42.5959C104.454 42.6279 104.462 42.6759 104.462 42.7399C104.462 43.0759 104.198 43.3239 103.67 43.4839C103.142 43.6279 102.662 43.6999 102.23 43.6999C101.814 43.6999 101.606 43.6039 101.606 43.4119C101.606 43.3959 101.646 43.2679 101.726 43.0279C101.966 42.2119 102.118 41.0279 102.182 39.4759C102.262 37.9239 102.302 36.1479 102.302 34.1479Z" stroke="#324934" stroke-width="8" mask="url(#path-4-outside-1_53_1287)"/>
<path d="M124.654 29.7319C123.39 31.3159 122.478 32.8999 121.918 34.4839H121.942C124.166 34.4839 125.438 34.4919 125.758 34.5079C126.094 34.5079 126.278 34.4919 126.31 34.4599C126.342 34.4279 126.366 34.3879 126.382 34.3399C126.11 32.3719 125.894 31.0359 125.734 30.3319C125.574 29.6119 125.414 29.2519 125.254 29.2519C125.094 29.2519 124.894 29.4119 124.654 29.7319ZM122.518 41.0359L123.046 40.9399C123.206 40.9399 123.286 41.0279 123.286 41.2039C123.286 41.7639 123.174 42.2359 122.95 42.6199C122.726 43.0039 122.446 43.2759 122.11 43.4359C121.566 43.7079 121.102 43.8439 120.718 43.8439C119.982 43.8439 119.43 43.5719 119.062 43.0279C118.694 42.4679 118.51 41.6359 118.51 40.5319C118.51 39.4119 118.814 37.9639 119.422 36.1879H118.03C117.854 36.1879 117.766 36.0999 117.766 35.9239C117.766 35.7479 117.902 35.4679 118.174 35.0839C118.446 34.6839 118.734 34.4839 119.038 34.4839H120.118C121.254 31.9559 122.59 29.7719 124.126 27.9319C124.526 27.4519 125.014 27.0039 125.59 26.5879C126.182 26.1719 126.638 25.9639 126.958 25.9639C127.278 25.9639 127.518 26.1079 127.678 26.3959C128.094 27.0679 128.582 29.5239 129.142 33.7639C129.334 35.5879 129.662 37.4759 130.126 39.4279C130.606 41.3639 131.046 42.4919 131.446 42.8119C131.542 42.8759 131.59 42.9559 131.59 43.0519C131.59 43.2919 131.246 43.5159 130.558 43.7239C129.886 43.9319 129.366 44.0359 128.998 44.0359C128.646 44.0359 128.374 43.9879 128.182 43.8919C127.99 43.8119 127.87 43.7239 127.822 43.6279C127.534 43.0039 127.246 41.5159 126.958 39.1639L126.814 38.0359C126.75 37.2839 126.686 36.7159 126.622 36.3319L126.454 36.2119L121.438 36.1879C121.246 37.0039 121.15 37.7159 121.15 38.3239C121.15 38.9319 121.166 39.3799 121.198 39.6679C121.246 39.9399 121.382 40.2359 121.606 40.5559C121.83 40.8759 122.134 41.0359 122.518 41.0359Z" stroke="#324934" stroke-width="8" mask="url(#path-4-outside-1_53_1287)"/>
<path d="M139.803 30.1879L139.899 29.4439C139.899 28.7079 139.611 28.2359 139.035 28.0279C138.587 27.8839 138.243 27.8119 138.003 27.8119H137.979C137.499 27.8119 137.083 27.8919 136.731 28.0519C136.379 28.1959 136.123 28.3799 135.963 28.6039C135.627 29.0679 135.435 29.5559 135.387 30.0679C135.387 30.6759 135.659 31.2039 136.203 31.6519C136.747 32.0839 137.403 32.4679 138.171 32.8039C138.955 33.1239 139.731 33.4759 140.499 33.8599C141.283 34.2439 141.947 34.7959 142.491 35.5159C143.035 36.2359 143.307 37.0999 143.307 38.1079C143.307 40.0759 142.683 41.5479 141.435 42.5239C140.203 43.4999 138.795 43.9879 137.211 43.9879C135.643 43.9879 134.339 43.6359 133.299 42.9319C132.275 42.2119 131.763 41.2519 131.763 40.0519V40.0279C131.763 39.4359 131.851 38.9239 132.027 38.4919C132.219 38.0439 132.443 37.7159 132.699 37.5079C133.227 37.0759 133.707 36.8439 134.139 36.8119L134.427 36.7879C134.875 36.7879 135.283 36.8999 135.651 37.1239C136.019 37.3319 136.203 37.6279 136.203 38.0119C136.203 38.2039 136.099 38.3639 135.891 38.4919C135.683 38.6199 135.499 38.8119 135.339 39.0679C135.195 39.3239 135.115 39.5399 135.099 39.7159L135.051 39.9799C135.051 40.9559 135.499 41.6039 136.395 41.9239C136.715 42.0359 136.971 42.0919 137.163 42.0919C138.043 42.0919 138.747 41.8279 139.275 41.2999C139.819 40.7719 140.091 40.0999 140.091 39.2839C140.091 38.3079 139.675 37.5159 138.843 36.9079C138.219 36.4599 137.539 36.0839 136.803 35.7799C136.083 35.4759 135.595 35.2599 135.339 35.1319C135.083 35.0039 134.811 34.8519 134.523 34.6759C134.235 34.4999 133.915 34.2519 133.563 33.9319C132.795 33.2599 132.411 32.3559 132.411 31.2199C132.411 30.0679 132.723 29.0999 133.347 28.3159C134.467 26.8919 136.147 26.1799 138.387 26.1799C139.571 26.1799 140.571 26.4119 141.387 26.8759C142.203 27.3239 142.611 27.9479 142.611 28.7479C142.611 29.3239 142.443 29.8039 142.107 30.1879C141.787 30.5719 141.371 30.7639 140.859 30.7639C140.619 30.7639 140.379 30.7159 140.139 30.6199C139.915 30.5239 139.803 30.3799 139.803 30.1879Z" stroke="#324934" stroke-width="8" mask="url(#path-4-outside-1_53_1287)"/>
<defs>
<filter id="filter0_iiii_53_1287" x="16" y="22" width="26" height="26" filterUnits="userSpaceOnUse" color-interpolation-filters="sRGB">
<feFlood flood-opacity="0" result="BackgroundImageFix"/>
<feBlend mode="normal" in="SourceGraphic" in2="BackgroundImageFix" result="shape"/>
<feColorMatrix in="SourceAlpha" type="matrix" values="0 0 0 0 0 0 0 0 0 0 0 0 0 0 0 0 0 0 127 0" result="hardAlpha"/>
<feOffset dx="1" dy="-1"/>
<feGaussianBlur stdDeviation="1.5"/>
<feComposite in2="hardAlpha" operator="arithmetic" k2="-1" k3="1"/>
<feColorMatrix type="matrix" values="0 0 0 0 0.509804 0 0 0 0 0.509804 0 0 0 0 0.509804 0 0 0 0.9 0"/>
<feBlend mode="normal" in2="shape" result="effect1_innerShadow_53_1287"/>
<feColorMatrix in="SourceAlpha" type="matrix" values="0 0 0 0 0 0 0 0 0 0 0 0 0 0 0 0 0 0 127 0" result="hardAlpha"/>
<feOffset dx="-1" dy="1"/>
<feGaussianBlur stdDeviation="1"/>
<feComposite in2="hardAlpha" operator="arithmetic" k2="-1" k3="1"/>
<feColorMatrix type="matrix" values="0 0 0 0 1 0 0 0 0 1 0 0 0 0 1 0 0 0 0.9 0"/>
<feBlend mode="normal" in2="effect1_innerShadow_53_1287" result="effect2_innerShadow_53_1287"/>
<feColorMatrix in="SourceAlpha" type="matrix" values="0 0 0 0 0 0 0 0 0 0 0 0 0 0 0 0 0 0 127 0" result="hardAlpha"/>
<feOffset dx="1" dy="1"/>
<feGaussianBlur stdDeviation="1"/>
<feComposite in2="hardAlpha" operator="arithmetic" k2="-1" k3="1"/>
<feColorMatrix type="matrix" values="0 0 0 0 0.509804 0 0 0 0 0.509804 0 0 0 0 0.509804 0 0 0 0.2 0"/>
<feBlend mode="normal" in2="effect2_innerShadow_53_1287" result="effect3_innerShadow_53_1287"/>
<feColorMatrix in="SourceAlpha" type="matrix" values="0 0 0 0 0 0 0 0 0 0 0 0 0 0 0 0 0 0 127 0" result="hardAlpha"/>
<feOffset dx="-1" dy="-1"/>
<feGaussianBlur stdDeviation="1"/>
<feComposite in2="hardAlpha" operator="arithmetic" k2="-1" k3="1"/>
<feColorMatrix type="matrix" values="0 0 0 0 0.509804 0 0 0 0 0.509804 0 0 0 0 0.509804 0 0 0 0.2 0"/>
<feBlend mode="normal" in2="effect3_innerShadow_53_1287" result="effect4_innerShadow_53_1287"/>
</filter>
</defs>
</svg>
