<svg width="60" height="61" viewBox="0 0 60 61" fill="none" xmlns="http://www.w3.org/2000/svg">
<mask id="mask0_24_1273" style="mask-type:alpha" maskUnits="userSpaceOnUse" x="0" y="0" width="60" height="61">
<path fill-rule="evenodd" clip-rule="evenodd" d="M42.5471 60.1758C43.0244 60.3631 43.5349 60.4496 44.0469 60.4299C44.5589 60.4101 45.0614 60.2847 45.5231 60.0612L57.8765 54.0862C58.5127 53.7783 59.0495 53.2961 59.4252 52.6951C59.8008 52.0941 60 51.3986 59.9999 50.6888V10.1752C59.9999 9.46546 59.8005 8.77012 59.4248 8.16921C59.049 7.5683 58.5121 7.08623 57.8759 6.77848L45.5243 0.803425C44.8261 0.466166 44.041 0.355234 43.2774 0.485966C42.5139 0.616698 41.8096 0.982636 41.2619 1.53319L17.6129 23.2188L7.31206 15.3602C6.84752 15.0053 6.27397 14.8252 5.69105 14.8512C5.10813 14.8772 4.5527 15.1077 4.12126 15.5025L0.817664 18.5235C0.560443 18.759 0.354916 19.0459 0.21421 19.3658C0.0735051 19.6856 0.000714664 20.0315 0.000488808 20.3812C0.000262953 20.7309 0.0726066 21.0769 0.212899 21.3969C0.353191 21.717 0.558347 22.0041 0.815264 22.2399L9.74806 30.432L0.815864 38.6241C0.558947 38.86 0.353791 39.1471 0.213499 39.4671C0.0732066 39.7872 0.000862953 40.1331 0.00108881 40.4829C0.00131466 40.8326 0.0741051 41.1784 0.214811 41.4983C0.355516 41.8182 0.561043 42.105 0.818264 42.3405L4.12186 45.3621C4.5533 45.757 5.10873 45.9875 5.69165 46.0135C6.27457 46.0395 6.84812 45.8594 7.31266 45.5045L17.6135 37.6447L41.2619 59.3315C41.6274 59.6998 42.0647 59.9873 42.5471 60.1758ZM45.0089 16.7413L27.0659 30.432L45.0095 44.1233L45.0089 16.7413Z" fill="white"/>
</mask>
<g mask="url(#mask0_24_1273)">
<path d="M57.8765 6.7875L45.5141 0.804601C44.8159 0.4667 44.0305 0.355248 43.2666 0.485663C42.5027 0.616079 41.7979 0.981914 41.2499 1.53256L0.779271 38.6241C0.522108 38.8598 0.31673 39.1469 0.176279 39.4669C0.0358279 39.787 -0.0366023 40.133 -0.0363764 40.4828C-0.0361505 40.8327 0.0367265 41.1786 0.177591 41.4985C0.318455 41.8183 0.524204 42.1051 0.781671 42.3405L4.08767 45.3615C4.51974 45.7556 5.07525 45.9855 5.65812 46.0115C6.241 46.0375 6.81458 45.8579 7.27967 45.5038L56.0165 8.33991C57.6515 7.09328 59.9999 8.26513 59.9999 10.3284V10.1836C59.9997 9.47415 59.8004 8.77911 59.4247 8.17844C59.0491 7.57776 58.5124 7.09585 57.8765 6.7881" fill="#0065A9"/>
<g filter="url(#filter0_d_24_1273)">
<path d="M57.8765 54.0771L45.5141 60.06C44.8159 60.3979 44.0305 60.5093 43.2666 60.3789C42.5027 60.2485 41.7979 59.8827 41.2499 59.332L0.779271 22.2405C0.522108 22.0048 0.31673 21.7177 0.176279 21.3977C0.0358279 21.0776 -0.0366023 20.7316 -0.0363764 20.3818C-0.0361505 20.0319 0.0367265 19.686 0.177591 19.3661C0.318455 19.0463 0.524204 18.7595 0.781671 18.5241L4.08767 15.5031C4.51974 15.109 5.07525 14.879 5.65812 14.8531C6.241 14.8271 6.81458 15.0067 7.27967 15.3608L56.0165 52.5247C57.6515 53.7713 59.9999 52.5995 59.9999 50.5362V50.681C59.9997 51.3904 59.8004 52.0855 59.4247 52.6862C59.0491 53.2868 58.5124 53.7693 57.8765 54.0771Z" fill="#007ACC"/>
</g>
<g filter="url(#filter1_d_24_1273)">
<path d="M45.5148 60.0601C44.8164 60.3979 44.0308 60.5091 43.2667 60.3784C42.5026 60.2476 41.7979 59.8814 41.25 59.3303C42.6336 60.7217 45 59.7368 45 57.7694V3.09349C45 1.12613 42.6336 0.141242 41.25 1.53202C41.7979 0.980952 42.5026 0.614698 43.2667 0.483954C44.0308 0.35321 44.8164 0.464442 45.5148 0.802256L57.8748 6.77791C58.5113 7.08549 59.0484 7.56749 59.4244 8.16841C59.8004 8.76934 59.9999 9.46477 60 10.1747V50.6883C60.0001 51.3982 59.8007 52.0937 59.4248 52.6947C59.049 53.2958 58.5119 53.7779 57.8754 54.0856L45.5148 60.0601Z" fill="#1F9CF0"/>
</g>
<path style="mix-blend-mode:overlay" opacity="0.25" fill-rule="evenodd" clip-rule="evenodd" d="M42.5104 60.1758C42.9877 60.3631 43.4983 60.4496 44.0103 60.4299C44.5223 60.4101 45.0248 60.2847 45.4864 60.0612L57.8398 54.0862C58.4762 53.7784 59.0132 53.2962 59.3889 52.6952C59.7647 52.0942 59.964 51.3987 59.9638 50.6888V10.1752C59.9639 9.46546 59.7645 8.77012 59.3888 8.16921C59.013 7.5683 58.4761 7.08623 57.8398 6.77848L45.487 0.803425C44.7889 0.466166 44.0038 0.355234 43.2402 0.485966C42.4767 0.616698 41.7723 0.982636 41.2246 1.53319L17.5762 23.2188L7.27544 15.3602C6.81095 15.0054 6.23752 14.8254 5.65474 14.8514C5.07195 14.8774 4.51664 15.1078 4.08524 15.5025L0.781043 18.5235C0.523822 18.759 0.318295 19.0459 0.177589 19.3658C0.036884 19.6856 -0.0359064 20.0315 -0.0361323 20.3812C-0.0363581 20.7309 0.0359855 21.0769 0.176278 21.3969C0.31657 21.717 0.521726 22.0041 0.778642 22.2399L9.71144 30.432L0.778642 38.6241C0.521726 38.86 0.31657 39.1471 0.176278 39.4671C0.0359855 39.7872 -0.0363581 40.1331 -0.0361323 40.4829C-0.0359064 40.8326 0.036884 41.1784 0.177589 41.4983C0.318295 41.8182 0.523822 42.105 0.781043 42.3405L4.08524 45.3615C4.51664 45.7562 5.07195 45.9866 5.65474 46.0126C6.23752 46.0386 6.81095 45.8586 7.27544 45.5039L17.5762 37.6453L41.2246 59.3321C41.5901 59.7004 42.0281 59.9873 42.5104 60.1758ZM44.9722 16.7413L27.0286 30.432L44.9722 44.1233V16.7413Z" fill="url(#paint0_linear_24_1273)"/>
</g>
<defs>
<filter id="filter0_d_24_1273" x="-10.0372" y="4.84979" width="80.0377" height="65.5827" filterUnits="userSpaceOnUse" color-interpolation-filters="sRGB">
<feFlood flood-opacity="0" result="BackgroundImageFix"/>
<feColorMatrix in="SourceAlpha" type="matrix" values="0 0 0 0 0 0 0 0 0 0 0 0 0 0 0 0 0 0 127 0" result="hardAlpha"/>
<feOffset/>
<feGaussianBlur stdDeviation="5.0004"/>
<feColorMatrix type="matrix" values="0 0 0 0 0 0 0 0 0 0 0 0 0 0 0 0 0 0 0.25 0"/>
<feBlend mode="overlay" in2="BackgroundImageFix" result="effect1_dropShadow_24_1273"/>
<feBlend mode="normal" in="SourceGraphic" in2="effect1_dropShadow_24_1273" result="shape"/>
</filter>
<filter id="filter1_d_24_1273" x="31.2492" y="-9.57014" width="38.7516" height="80.0026" filterUnits="userSpaceOnUse" color-interpolation-filters="sRGB">
<feFlood flood-opacity="0" result="BackgroundImageFix"/>
<feColorMatrix in="SourceAlpha" type="matrix" values="0 0 0 0 0 0 0 0 0 0 0 0 0 0 0 0 0 0 127 0" result="hardAlpha"/>
<feOffset/>
<feGaussianBlur stdDeviation="5.0004"/>
<feColorMatrix type="matrix" values="0 0 0 0 0 0 0 0 0 0 0 0 0 0 0 0 0 0 0.25 0"/>
<feBlend mode="overlay" in2="BackgroundImageFix" result="effect1_dropShadow_24_1273"/>
<feBlend mode="normal" in="SourceGraphic" in2="effect1_dropShadow_24_1273" result="shape"/>
</filter>
<linearGradient id="paint0_linear_24_1273" x1="29.9632" y1="0.431907" x2="29.9632" y2="60.4322" gradientUnits="userSpaceOnUse">
<stop stop-color="white"/>
<stop offset="1" stop-color="white" stop-opacity="0"/>
</linearGradient>
</defs>
</svg>
