<svg width="162" height="10" viewBox="0 0 162 10" fill="none" xmlns="http://www.w3.org/2000/svg">
<path fill-rule="evenodd" clip-rule="evenodd" d="M53.7064 0.88335C35.8419 0.676134 17.9045 1.43341 0.613055 4.61323C0.304546 4.66974 0.176474 4.78089 0.151233 4.80632C0.00352256 4.95702 -0.0123977 5.11714 0.0062998 5.249C0.0175183 5.32906 0.0932759 5.66719 0.507425 5.70204C0.793496 5.72559 2.82401 5.56076 3.60743 5.51838C7.29551 5.31964 10.9761 5.03614 14.6549 4.70836C22.9958 3.96803 31.3255 3.32755 39.6795 2.74452C44.3698 2.41675 49.0619 2.14547 53.7513 1.92319C65.0324 2.05599 76.2855 2.57404 87.3282 3.10903C82.939 3.38124 78.9059 3.65721 75.5619 3.83617C69.9227 4.13757 64.2939 4.4936 58.6659 4.96266C55.7744 5.20285 52.8865 5.46376 50.0005 5.77175C49.6808 5.8066 48.9525 5.84239 48.6001 5.88478C48.4505 5.90173 48.3421 5.92905 48.2935 5.94789C47.9887 6.06656 47.9504 6.30956 47.9466 6.43201C47.9448 6.50642 47.97 6.91238 48.4842 6.9915C72.3917 10.7044 97.3342 6.38492 121.328 9.99424C121.609 10.0366 121.873 9.84071 121.915 9.55626C121.957 9.27275 121.762 9.00713 121.48 8.96475C98.8823 5.56547 75.4422 9.20022 52.8155 6.53185C54.7927 6.33877 56.7709 6.16451 58.751 5.99968C64.3686 5.53157 69.9872 5.17648 75.617 4.87507C81.2824 4.57273 88.9409 3.98216 96.9574 3.61011C103.837 3.99629 110.713 4.42955 117.594 4.79689C120.497 4.95136 123.4 5.07946 126.302 5.23676C127.495 5.3008 130.564 5.56924 131.009 5.4694C131.355 5.39122 131.438 5.14163 131.459 5.01636C131.48 4.88073 131.467 4.71212 131.31 4.55106C131.262 4.5002 131.116 4.39471 130.817 4.30806C122.725 1.97311 109.476 2.00984 97.0677 2.57404C94.3987 2.42333 91.7296 2.28017 89.0596 2.15113C82.9474 1.85443 76.7679 1.55679 70.5528 1.32226C88.0677 0.886167 105.591 1.01144 123.119 1.32698C130.478 1.45978 150.315 2.26039 158.128 2.96775C158.033 3.06665 157.977 3.20416 157.983 3.35392C157.996 3.64026 158.238 3.86254 158.523 3.84936C160.135 3.774 161.067 3.67793 161.437 3.57903C161.667 3.51781 161.792 3.41986 161.85 3.35581C161.992 3.20134 162.018 3.03556 161.99 2.87826C161.972 2.78031 161.928 2.67293 161.827 2.57404C161.76 2.50622 161.596 2.40262 161.315 2.33197C158.244 1.56245 131.9 0.444421 123.138 0.286184C99.9817 -0.130131 76.8352 -0.214892 53.7064 0.88335ZM124.553 4.10272C120.028 3.4839 114.724 3.26632 109.19 3.28045C112.009 3.44528 114.828 3.60635 117.649 3.75705C119.95 3.88044 122.251 3.98592 124.553 4.10272ZM32.3651 2.22743C26.4287 2.66823 20.4988 3.14482 14.5642 3.67228C13.8789 3.73256 13.1946 3.7919 12.5093 3.8503C19.0721 3.04027 25.7032 2.52506 32.3651 2.22743Z" fill="#959595"/>
</svg>
