<svg width="60" height="61" viewBox="0 0 60 61" fill="none" xmlns="http://www.w3.org/2000/svg">
<path d="M28.2499 0.276367C21.0271 0.687624 14.1971 3.69873 9.02142 8.75352C3.84578 13.8083 0.67416 20.5653 0.0923903 27.7764C-0.0298202 29.4408 -0.0298202 31.1119 0.0923903 32.7764C0.675962 39.9984 3.85719 46.7642 9.04678 51.8205C14.2364 56.8768 21.0826 59.8809 28.3174 60.2764H31.6824C39.0546 59.8307 46.006 56.6913 51.2146 51.455C56.4232 46.2188 59.5258 39.2509 59.9324 31.8764C60.0195 30.461 60.0195 29.0417 59.9324 27.6264C59.2804 20.44 56.0704 13.7264 50.8863 8.70704C45.7023 3.68766 38.8886 0.696015 31.6849 0.276367L28.2499 0.276367ZM37.4999 16.5514L44.9749 20.9014C44.9749 20.9014 29.8149 29.0014 29.7649 29.0014C29.7149 29.0014 14.5299 20.9514 14.4999 20.9264L21.9849 16.5014L29.4649 12.1014L37.4999 16.5514ZM21.3099 29.3664L27.4999 32.7764V47.5764L21.1824 44.0764L15.0324 40.5014V26.1014L21.3099 29.3664ZM44.9624 33.2964V40.6064L38.7499 44.2114L32.4999 47.8189V32.7589L38.7224 29.3964L44.9724 26.0089L44.9624 33.2964Z" fill="black"/>
</svg>
